<svg width="31" height="34" viewBox="0 0 31 34" fill="none" xmlns="http://www.w3.org/2000/svg">
<path d="M25.8333 0H5.16667C3.79638 0 2.48222 0.588769 1.51328 1.63679C0.544344 2.6848 0 4.10622 0 5.58833V27.9417C0 29.4238 0.544344 30.8452 1.51328 31.8932C2.48222 32.9412 3.79638 33.53 5.16667 33.53H25.8333C27.2036 33.53 28.5178 32.9412 29.4867 31.8932C30.4557 30.8452 31 29.4238 31 27.9417V5.58833C31 4.10622 30.4557 2.6848 29.4867 1.63679C28.5178 0.588769 27.2036 0 25.8333 0ZM15.5 5.58833C15.8406 5.58833 16.1736 5.69758 16.4568 5.90227C16.74 6.10695 16.9608 6.39788 17.0911 6.73826C17.2215 7.07864 17.2556 7.45318 17.1891 7.81452C17.1227 8.17586 16.9587 8.50778 16.7178 8.76829C16.4769 9.02881 16.1701 9.20622 15.836 9.2781C15.5019 9.34997 15.1556 9.31308 14.8409 9.17209C14.5262 9.0311 14.2573 8.79235 14.068 8.48601C13.8788 8.17968 13.7778 7.81953 13.7778 7.45111C13.7778 6.95707 13.9592 6.48327 14.2822 6.13393C14.6052 5.78459 15.0432 5.58833 15.5 5.58833ZM8.61111 5.58833C8.95173 5.58833 9.28471 5.69758 9.56793 5.90227C9.85114 6.10695 10.0719 6.39788 10.2022 6.73826C10.3326 7.07864 10.3667 7.45318 10.3002 7.81452C10.2338 8.17586 10.0698 8.50778 9.82891 8.76829C9.58805 9.02881 9.28118 9.20622 8.9471 9.2781C8.61302 9.34997 8.26674 9.31308 7.95205 9.17209C7.63735 9.0311 7.36838 8.79235 7.17914 8.48601C6.9899 8.17968 6.88889 7.81953 6.88889 7.45111C6.88889 6.95707 7.07034 6.48327 7.39332 6.13393C7.7163 5.78459 8.15435 5.58833 8.61111 5.58833ZM27.5556 27.9417C27.5556 28.4357 27.3741 28.9095 27.0511 29.2589C26.7281 29.6082 26.2901 29.8044 25.8333 29.8044H5.16667C4.7099 29.8044 4.27185 29.6082 3.94887 29.2589C3.62589 28.9095 3.44444 28.4357 3.44444 27.9417V14.9022H27.5556V27.9417Z" fill="black"/>
</svg>
