<svg width="32" height="38" viewBox="0 0 32 38" fill="none" xmlns="http://www.w3.org/2000/svg">
<path d="M3.20628 7.83422C3.50252 6.17929 4.24435 4.6993 5.3093 3.63858C6.37424 2.57787 7.69862 1.99987 9.06378 2H23.4368C24.8019 1.99987 26.1263 2.57787 27.1913 3.63858C28.2562 4.6993 28.998 6.17929 29.2943 7.83422L29.5148 9.06738C30.6578 15.4545 30.6578 22.0755 29.5148 28.4626L29.2943 29.6958C28.998 31.3507 28.2562 32.8307 27.1913 33.8914C26.1263 34.9521 24.8019 35.5301 23.4368 35.53H9.06528C7.70012 35.5301 6.37574 34.9521 5.3108 33.8914C4.24585 32.8307 3.50402 31.3507 3.20778 29.6958L2.98728 28.4626C1.84441 22.0754 1.84441 15.4546 2.98728 9.06738L3.20778 7.83422H3.20628Z" stroke="black" stroke-width="3" stroke-linecap="round" stroke-linejoin="round"/>
<path d="M2 20.6284H11.507C11.507 22.4912 12.9665 26.2168 16.6145 26.2168C20.264 26.2168 21.7235 22.4912 21.7235 20.6284H30.5" stroke="black" stroke-width="3" stroke-linejoin="round"/>
</svg>
