<svg width="29" height="34" viewBox="0 0 29 34" fill="none" xmlns="http://www.w3.org/2000/svg">
<path d="M15.4806 33.53C15.0763 33.53 14.6959 33.4389 14.3392 33.2567C13.9825 33.0757 13.6733 32.8315 13.4118 32.5241L0.85607 17.7709C0.594493 17.4635 0.386658 17.1003 0.232566 16.6812C0.0775221 16.262 0 15.815 0 15.34V3.353C0 2.43092 0.27965 1.64129 0.838949 0.984105C1.3973 0.328035 2.06884 0 2.85357 0H13.0551C13.4593 0 13.8398 0.0905309 14.1965 0.271593C14.5532 0.453773 14.8623 0.698541 15.1239 1.0059L27.6796 15.801C28.2265 16.4437 28.5 17.2327 28.5 18.1682C28.5 19.1048 28.2265 19.8945 27.6796 20.5371L17.4781 32.5241C17.2165 32.8315 16.9136 33.0757 16.5692 33.2567C16.224 33.4389 15.8611 33.53 15.4806 33.53ZM6.42053 10.059C7.01502 10.059 7.5201 9.81423 7.93577 9.32469C8.35239 8.83627 8.5607 8.24279 8.5607 7.54425C8.5607 6.84571 8.35239 6.25223 7.93577 5.76381C7.5201 5.27427 7.01502 5.0295 6.42053 5.0295C5.82603 5.0295 5.32095 5.27427 4.90528 5.76381C4.48866 6.25223 4.28035 6.84571 4.28035 7.54425C4.28035 8.24279 4.48866 8.83627 4.90528 9.32469C5.32095 9.81423 5.82603 10.059 6.42053 10.059Z" fill="black"/>
</svg>
