<svg width="41" height="42" viewBox="0 0 41 42" fill="none" xmlns="http://www.w3.org/2000/svg">
<g filter="url(#filter0_d_386_49)">
<path d="M34.3272 13.5136L33.0435 9.42051C32.9049 8.94746 32.6724 8.50716 32.3599 8.12588C32.0473 7.74459 31.6612 7.43012 31.2244 7.20123C30.7877 6.97235 30.3093 6.83373 29.8178 6.79364C29.3263 6.75356 28.8317 6.81283 28.3636 6.96793L27.8111 7.1466C27.3783 7.2896 26.9173 7.32588 26.4674 7.25235C26.0176 7.17882 25.5921 6.99766 25.2274 6.7243L25.0487 6.59436C24.6928 6.3221 24.4059 5.97004 24.2112 5.5666C24.0164 5.16315 23.9192 4.7196 23.9275 4.27171V3.81693C23.9354 2.79696 23.538 1.81555 22.8225 1.08823C22.4822 0.74463 22.0773 0.471613 21.6312 0.284862C21.185 0.0981101 20.7063 0.00130294 20.2226 0H16.0789C15.0847 0.0128416 14.1359 0.417738 13.4389 1.12654C12.742 1.83533 12.3534 2.79063 12.3578 3.78445V4.17426C12.3562 4.64573 12.2488 5.11084 12.0435 5.53531C11.8382 5.95977 11.5403 6.33278 11.1716 6.62684L10.9603 6.78926C10.553 7.09725 10.0766 7.30115 9.57253 7.38324C9.06845 7.46533 8.55194 7.42312 8.06789 7.26029C7.62333 7.10652 7.15217 7.04451 6.68294 7.07801C6.2137 7.11151 5.75615 7.23983 5.33796 7.4552C4.90256 7.6712 4.51629 7.97445 4.20319 8.34609C3.89009 8.71773 3.65686 9.1498 3.51801 9.61542L2.18555 13.8384C1.87655 14.7905 1.95579 15.826 2.40607 16.7201C2.85634 17.6142 3.6413 18.2946 4.59048 18.6136H4.85048C5.28834 18.7776 5.68133 19.0425 5.99755 19.3868C6.31377 19.7311 6.5443 20.1451 6.67043 20.5952L6.76793 20.8551C6.94907 21.3523 7.00965 21.8854 6.94468 22.4105C6.87971 22.9357 6.69105 23.438 6.39419 23.8761C5.7933 24.6941 5.53985 25.7161 5.68896 26.7199C5.83807 27.7236 6.37769 28.6279 7.19042 29.2361L10.5541 31.7861C11.191 32.249 11.9604 32.4939 12.7478 32.4845C12.9585 32.5052 13.1708 32.5052 13.3815 32.4845C13.8692 32.3902 14.3325 32.1975 14.7432 31.9182C15.1538 31.639 15.5033 31.279 15.7702 30.8603L16.1439 30.3243C16.4061 29.9484 16.753 29.6394 17.1566 29.4221C17.5603 29.2049 18.0093 29.0855 18.4676 29.0736C18.9479 29.0618 19.4233 29.1718 19.8496 29.3934C20.2758 29.6149 20.6389 29.9408 20.9051 30.3405L21.1001 30.6167C21.3771 31.0288 21.7356 31.3799 22.1536 31.6483C22.5715 31.9167 23.0399 32.0968 23.5301 32.1775C24.0203 32.2581 24.5218 32.2376 25.0037 32.1172C25.4856 31.9968 25.9378 31.7791 26.3324 31.4775L29.6311 29.0087C30.411 28.4032 30.9297 27.5225 31.0808 26.547C31.2318 25.5715 31.0038 24.5753 30.4436 23.7624L30.0211 23.1452C29.767 22.7529 29.6007 22.3103 29.5333 21.8478C29.466 21.3853 29.4994 20.9137 29.6311 20.4653C29.7653 19.9852 30.0145 19.545 30.3571 19.1828C30.6996 18.8206 31.1253 18.5472 31.5973 18.3862L31.9223 18.2725C32.8626 17.9464 33.6393 17.2675 34.0881 16.3794C34.5369 15.4914 34.6226 14.4637 34.3272 13.5136ZM18.2564 21.9271C17.1315 21.9271 16.0319 21.5936 15.0967 20.969C14.1614 20.3443 13.4324 19.4565 13.0019 18.4177C12.5715 17.379 12.4589 16.236 12.6783 15.1332C12.8978 14.0305 13.4394 13.0175 14.2348 12.2225C15.0302 11.4275 16.0436 10.886 17.1468 10.6667C18.2501 10.4474 19.3936 10.5599 20.4328 10.9902C21.4721 11.4205 22.3603 12.1491 22.9852 13.084C23.6102 14.0188 23.9437 15.1179 23.9437 16.2423C23.9437 17.75 23.3445 19.1959 22.2779 20.262C21.2114 21.3281 19.7648 21.9271 18.2564 21.9271Z" fill="black"/>
</g>
<defs>
<filter id="filter0_d_386_49" x="0" y="0" width="40.5" height="41.5" filterUnits="userSpaceOnUse" color-interpolation-filters="sRGB">
<feFlood flood-opacity="0" result="BackgroundImageFix"/>
<feColorMatrix in="SourceAlpha" type="matrix" values="0 0 0 0 0 0 0 0 0 0 0 0 0 0 0 0 0 0 127 0" result="hardAlpha"/>
<feOffset dx="2" dy="5"/>
<feGaussianBlur stdDeviation="2"/>
<feComposite in2="hardAlpha" operator="out"/>
<feColorMatrix type="matrix" values="0 0 0 0 0 0 0 0 0 0 0 0 0 0 0 0 0 0 0.25 0"/>
<feBlend mode="normal" in2="BackgroundImageFix" result="effect1_dropShadow_386_49"/>
<feBlend mode="normal" in="SourceGraphic" in2="effect1_dropShadow_386_49" result="shape"/>
</filter>
</defs>
</svg>
