<svg width="34" height="30" viewBox="0 0 34 30" fill="none" xmlns="http://www.w3.org/2000/svg">
<path d="M31.875 12.7527H6.6725L14.3863 3.48766C14.7469 3.0537 14.9205 2.49423 14.8687 1.93232C14.8169 1.37042 14.544 0.852105 14.11 0.491411C13.676 0.130717 13.1166 -0.042815 12.5547 0.00899194C11.9928 0.0607989 11.4744 0.333701 11.1137 0.767661L0.48875 13.5177C0.417266 13.6191 0.353343 13.7256 0.2975 13.8364C0.2975 13.9427 0.2975 14.0064 0.14875 14.1127C0.0524315 14.3563 0.00199988 14.6157 0 14.8777C0.00199988 15.1397 0.0524315 15.399 0.14875 15.6427C0.14875 15.7489 0.14875 15.8127 0.2975 15.9189C0.353343 16.0297 0.417266 16.1362 0.48875 16.2377L11.1137 28.9877C11.3135 29.2275 11.5637 29.4204 11.8465 29.5527C12.1294 29.6849 12.4378 29.7532 12.75 29.7527C13.2465 29.7536 13.7277 29.5807 14.11 29.2639C14.3252 29.0855 14.503 28.8664 14.6334 28.6192C14.7638 28.372 14.8441 28.1014 14.8698 27.8231C14.8954 27.5448 14.8659 27.2641 14.783 26.9972C14.7 26.7303 14.5652 26.4824 14.3863 26.2677L6.6725 17.0027H31.875C32.4386 17.0027 32.9791 16.7788 33.3776 16.3803C33.7761 15.9817 34 15.4412 34 14.8777C34 14.3141 33.7761 13.7736 33.3776 13.3751C32.9791 12.9765 32.4386 12.7527 31.875 12.7527Z" fill="black"/>
</svg>
