<svg width="32" height="28" viewBox="0 0 32 28" fill="none" xmlns="http://www.w3.org/2000/svg">
<path d="M9.31822 22.7063C6.63116 20.8231 4.50481 18.3736 3.30328 16.8269C2.9673 16.3999 2.78491 15.8747 2.78491 15.3341C2.78491 14.7934 2.9673 14.2682 3.30328 13.8412C5.47769 11.0395 10.6945 5.27084 16.7852 5.27084C19.5174 5.27084 22.0719 6.43091 24.2565 7.96472" stroke="black" stroke-width="2" stroke-linecap="round" stroke-linejoin="round"/>
<path d="M13.8724 24.9703C14.8179 25.2481 15.7987 25.3914 16.7852 25.3958C22.8758 25.3958 28.0927 19.6271 30.2671 16.8255C30.603 16.3981 30.7852 15.8725 30.7849 15.3316C30.7846 14.7908 30.6019 14.2654 30.2656 13.8383C29.5014 12.8543 28.6816 11.9137 27.8101 11.0208M19.8873 12.2959C19.4829 11.89 19.001 11.5672 18.4695 11.3461C17.938 11.125 17.3675 11.0099 16.7907 11.0075C16.2139 11.0051 15.6424 11.1155 15.1091 11.3322C14.5757 11.5489 14.0912 11.8677 13.6833 12.2702C13.2754 12.6727 12.9523 13.151 12.7326 13.6773C12.5129 14.2037 12.401 14.7678 12.4032 15.337C12.4055 15.9063 12.522 16.4695 12.7459 16.9941C12.9698 17.5188 13.2967 17.9945 13.7078 18.3938L19.8873 12.2959ZM5.13397 26.8333L28.4364 3.83333L5.13397 26.8333Z" stroke="black" stroke-width="2" stroke-linecap="round" stroke-linejoin="round"/>
</svg>
