<svg xmlns="http://www.w3.org/2000/svg" width="30" height="22" fill="none" viewBox="0 0 30 22"><path stroke="#000" stroke-linecap="round" stroke-linejoin="round" stroke-width="2" d="M28.4822 9.51714C29.1726 10.4029 29.1726 11.5986 28.4822 12.4829C26.3078 15.2671 21.0909 21 15.0002 21C8.9095 21 3.69262 15.2671 1.5182 12.4829C1.18232 12.0588 1 11.537 1 11C1 10.463 1.18232 9.94124 1.5182 9.51714C3.69262 6.73286 8.9095 1 15.0002 1C21.0909 1 26.3078 6.73286 28.4822 9.51714V9.51714Z"/><path stroke="#000" stroke-linecap="round" stroke-linejoin="round" stroke-width="2" d="M15.0002 15.2857C17.4133 15.2857 19.3695 13.3669 19.3695 11C19.3695 8.63306 17.4133 6.71428 15.0002 6.71428C12.5872 6.71428 10.631 8.63306 10.631 11C10.631 13.3669 12.5872 15.2857 15.0002 15.2857Z"/></svg>