<svg width="578" height="578" viewBox="0 0 578 578" fill="none" xmlns="http://www.w3.org/2000/svg">
<path d="M50.8629 321.085C50.4583 315.941 50.1462 310.791 49.8976 305.652" stroke="black" stroke-width="4.05" stroke-miterlimit="10"/>
<path d="M343.413 506.12H196.59" stroke="#CCDDE2" stroke-width="4.05" stroke-miterlimit="10"/>
<path d="M386.278 138.31C386.278 138.31 429.547 117.877 466.256 157.742C478.249 170.77 486.434 188.058 487.012 205.895C487.274 214.599 485.871 223.272 482.879 231.449C479.833 239.795 474.365 245.321 470.163 252.754C463.718 264.215 477.192 266.244 484.422 271.799C489.228 275.522 493.787 279.553 498.069 283.867C507.72 293.506 516.213 304.239 523.374 315.848C537.554 338.972 546.092 365.109 548.297 392.144C550.476 418.801 548.806 447.748 535.136 471.428C528.558 482.832 518.652 494.016 506.467 499.334C490.283 506.391 472.105 506.126 454.811 506.126H418.01" stroke="#CCDDE2" stroke-width="4.05" stroke-miterlimit="10"/>
<path d="M205.914 404.681C204.463 415.004 202.301 426.847 199.914 438.702L197.099 439.506C188.09 442.036 178.523 441.756 169.679 438.702L173.366 426.171L150.917 360.857C150.917 360.857 168.078 355.308 182.169 351.187L183.788 351.118C191.487 352.742 207.353 358.84 207.85 381.677C207.885 382.775 207.85 383.931 207.85 385.191C210.087 392.56 209.197 399.057 205.914 404.681Z" fill="#49B4D6"/>
<path d="M153.073 156.06C152.852 155.496 152.418 155.043 151.866 154.795C151.314 154.547 150.687 154.527 150.119 154.736C149.801 154.832 149.507 154.996 149.258 155.216C148.368 155.939 148.166 157.204 148.137 158.407C148.056 161.152 147.9 163.903 147.697 166.637C147.697 166.822 147.669 167.03 147.669 167.215C147.541 169.418 147.634 172.088 146.698 174.007C146.637 174.153 146.535 174.278 146.403 174.365C146.091 174.51 145.761 174.198 145.559 173.914C144.981 173.071 144.403 172.244 143.825 171.383C143.368 170.695 142.854 169.949 142.056 169.73C140.871 169.4 139.744 170.446 139.091 171.51C136.981 174.978 136.779 180.66 140.045 183.567C143.31 186.474 135.999 192.191 130.762 194.595C129.885 195.088 128.966 195.502 128.017 195.832C127.97 195.832 129.907 196.266 129.86 196.283C125.786 197.701 121.541 198.574 117.237 198.878C112.127 199.219 107.145 198.578 103.521 196.358C103.677 195.78 104.914 191.734 104.989 191.156C105.255 189.139 105.446 187.139 105.567 185.11C105.787 181.301 105.769 177.486 105.625 173.689C105.099 160.025 107.532 148.546 113.174 146.795C113.619 146.661 114.046 146.473 114.445 146.234C116.988 144.829 118.347 141.864 117.179 139.067C117.098 138.876 117.006 138.691 116.925 138.489C116.833 138.289 116.729 138.096 116.613 137.911C127.629 134.489 135.109 136.865 142.669 141.003C144.108 142.153 145.459 143.406 146.715 144.754C149.674 147.967 151.85 151.82 153.073 156.014V156.06Z" fill="#B9B9B9"/>
<path d="M417.893 287.434H380.323V197.636C380.323 197.636 373.387 275.66 354.383 319.865H238.026C251.741 311.149 262.741 297.982 270.064 283.81C272.954 278.203 277.578 269.88 285.265 272.065C287.092 272.579 289.78 272.909 291.138 271.238C291.607 270.597 291.873 269.83 291.901 269.036C292.56 260.851 284.075 253.962 277.081 251.788C270.087 249.615 261.914 250.632 256.348 255.713C252.337 259.383 249.823 264.256 246.886 268.77C245.124 271.445 243.034 273.89 240.667 276.047C243.684 257.725 246.372 240.211 246.759 233.766C254.117 227.958 259.521 218.484 261.44 210.103C263.55 200.948 265.411 191.994 268.688 183.423L295.513 183.515C296.523 183.515 297.492 183.114 298.206 182.4C298.921 181.685 299.322 180.716 299.322 179.706V135.154C299.324 134.153 298.929 133.192 298.224 132.481C297.519 131.771 296.561 131.368 295.56 131.362L277.295 131.206C283.933 129.819 290.663 128.92 297.432 128.518C297.571 128.518 297.698 128.518 297.82 128.518C302.276 128.224 310.085 128.096 314.582 128.05C309.224 130.94 305.912 137.079 306.49 142.5C306.591 143.655 306.886 144.784 307.362 145.841C311.94 155.898 323.997 158.869 333.95 155.944C345.025 152.713 353.163 142.529 352.678 130.813C359.614 131.83 366.48 133.121 373.278 134.686C383.606 137.061 393.681 140.263 401.848 147.246C408.969 153.309 415.003 161.118 417.795 169.944C429.783 207.681 426.095 249.794 417.893 287.434Z" fill="#2E2E2E"/>
<path d="M247.061 233.766C246.217 247.557 244.044 261.337 241.685 275.082" stroke="black" stroke-width="4.05" stroke-miterlimit="10"/>
<path d="M268.99 183.423C265.707 191.994 263.852 200.948 261.742 210.103C259.806 218.455 254.413 227.958 247.061 233.766C240.888 238.639 233.328 240.934 225.236 237.859C214.381 233.72 210.572 221.756 209.242 211.207C207.515 198.072 207.41 184.775 208.93 171.614C210.462 175.018 216.722 185.376 236.137 182.654C236.658 183.043 237.285 183.267 237.934 183.295L268.99 183.423Z" fill="#2E2E2E"/>
<path d="M258.089 153.788C262.609 152.632 265.36 156.979 264.69 160.285C263.597 165.678 255.841 167.799 251.222 167.897C247.523 167.973 238.507 166.996 234.83 166.568" stroke="black" stroke-width="4.05" stroke-miterlimit="10"/>
<path d="M233.31 156.459C238.902 158.075 244.823 158.173 250.465 156.742C255.21 155.522 260.817 153.274 263.302 148.76C264.753 146.136 263.597 141.951 260.568 141.026C257.071 139.968 253.835 143.448 250.667 144.327C248.624 144.883 246.538 145.27 244.43 145.483C243.852 145.546 243.309 145.592 242.748 145.639C239.799 145.875 236.834 145.854 233.888 145.575C233.574 145.575 233.269 145.476 233.015 145.293C232.761 145.109 232.571 144.85 232.472 144.553C232.374 144.255 232.372 143.934 232.466 143.635C232.56 143.336 232.746 143.075 232.998 142.887L233.529 142.5" stroke="black" stroke-width="4.05" stroke-miterlimit="10"/>
<path d="M268.99 183.423C265.707 191.994 263.852 200.948 261.742 210.103C258.182 225.472 242.998 244.621 225.236 237.847C214.381 233.709 210.572 221.744 209.242 211.195C207.162 194.861 207.335 178.082 210.398 161.886C212.942 148.546 217.456 134.535 230.438 127.975L236.53 124.929C237.982 124.195 239.665 124.058 241.217 124.549C242.769 125.039 244.068 126.118 244.836 127.553C245.303 128.445 245.551 129.436 245.558 130.443C245.564 130.59 245.552 130.738 245.523 130.882" stroke="black" stroke-width="4.05" stroke-miterlimit="10"/>
<path d="M392.728 308.802C395.867 308.705 399.008 308.784 402.138 309.039C404.693 309.247 407.34 309.369 409.774 310.322C411.779 311.12 413.872 313.022 413.768 315.345C413.577 319.9 407.612 319.865 404.34 319.865" stroke="black" stroke-width="4.05" stroke-miterlimit="10"/>
<path opacity="0.54" d="M336.592 304.461L363.793 234.772C364.13 233.421 364.153 232.011 363.863 230.65C363.573 229.288 362.976 228.012 362.118 226.916C361.259 225.82 360.162 224.934 358.91 224.326C357.658 223.719 356.283 223.404 354.891 223.408H246.875C244.454 223.414 242.105 224.233 240.206 225.734C238.307 227.235 236.967 229.331 236.401 231.685L206.588 301.358C206.265 302.703 206.251 304.103 206.547 305.454C206.843 306.806 207.442 308.073 208.298 309.159C209.154 310.245 210.246 311.124 211.49 311.728C212.735 312.331 214.1 312.645 215.484 312.646H326.113C328.522 312.644 330.861 311.838 332.76 310.355C334.659 308.873 336.007 306.798 336.592 304.461Z" fill="white"/>
<path d="M336.592 304.461L363.793 234.772C364.13 233.421 364.153 232.011 363.863 230.65C363.573 229.288 362.976 228.012 362.118 226.916C361.259 225.82 360.162 224.934 358.91 224.326C357.658 223.719 356.283 223.404 354.891 223.408H246.875C244.454 223.414 242.105 224.233 240.206 225.734C238.307 227.235 236.967 229.331 236.401 231.685L206.588 301.358C206.265 302.703 206.251 304.103 206.547 305.454C206.843 306.806 207.442 308.073 208.298 309.159C209.154 310.245 210.246 311.124 211.49 311.728C212.735 312.331 214.1 312.645 215.484 312.646H326.113C328.522 312.644 330.861 311.838 332.76 310.355C334.659 308.873 336.007 306.798 336.592 304.461Z" fill="#3FBDF1"/>
<path d="M336.592 304.461L363.793 234.772C364.13 233.421 364.153 232.011 363.863 230.65C363.573 229.288 362.976 228.012 362.118 226.916C361.259 225.82 360.162 224.934 358.91 224.326C357.658 223.719 356.283 223.404 354.891 223.408H246.875C244.454 223.414 242.105 224.233 240.206 225.734C238.307 227.235 236.967 229.331 236.401 231.685L206.588 301.358C206.265 302.703 206.251 304.103 206.547 305.454C206.843 306.806 207.442 308.073 208.298 309.159C209.154 310.245 210.246 311.124 211.49 311.728C212.735 312.331 214.1 312.645 215.484 312.646H326.113C328.522 312.644 330.861 311.838 332.76 310.355C334.659 308.873 336.007 306.798 336.592 304.461Z" stroke="black" stroke-width="4.05" stroke-linecap="square" stroke-linejoin="round"/>
<path d="M332.61 301.641L357.707 237.35C358.018 236.106 358.041 234.807 357.775 233.552C357.509 232.297 356.96 231.12 356.17 230.109C355.381 229.099 354.371 228.281 353.218 227.719C352.066 227.156 350.799 226.865 349.517 226.865H249.84C247.603 226.865 245.43 227.617 243.673 229.003C241.915 230.388 240.676 232.324 240.153 234.5L212.704 298.78C212.408 300.02 212.397 301.311 212.672 302.556C212.946 303.801 213.499 304.968 214.288 305.97C215.078 306.971 216.084 307.78 217.231 308.336C218.378 308.893 219.637 309.183 220.912 309.184H322.946C325.168 309.186 327.326 308.444 329.077 307.077C330.829 305.71 332.073 303.796 332.61 301.641Z" fill="#3FBDF1"/>
<path d="M257.03 238.714C258.354 236.731 260.498 235.824 261.862 236.743C263.226 237.662 263.226 239.974 261.909 241.945C261.7 242.248 261.469 242.535 261.215 242.8L271.006 263.475C272.567 262.435 274.284 262.175 275.52 262.996C275.917 263.285 276.245 263.658 276.483 264.086C276.721 264.516 276.861 264.992 276.896 265.481L283.589 263.227L289.439 261.256L291.346 260.632C291.588 259.913 291.922 259.229 292.34 258.597C294.196 255.805 297.23 254.551 299.12 255.823C301.01 257.094 301.033 260.302 299.23 263.071L310.385 278.301C312.819 276.307 315.68 275.689 317.662 277.006C320.362 278.804 320.402 283.492 317.755 287.468C317.645 287.63 317.524 287.757 317.414 287.908L324.835 298.057L324.905 298.155C325.285 298.728 325.421 299.428 325.284 300.101C325.148 300.774 324.749 301.366 324.177 301.745C323.604 302.125 322.904 302.261 322.231 302.124C321.558 301.988 320.967 301.589 320.587 301.017L313.998 291.069C311.911 292.277 309.692 292.508 308.068 291.428C305.49 289.694 305.363 285.37 307.663 281.515L296.987 265.4C295.409 266.47 293.67 266.741 292.421 265.915C291.728 265.422 291.255 264.677 291.103 263.84L290.306 264.059L284.358 265.683L276.74 267.741C276.502 268.654 276.112 269.52 275.584 270.302C273.729 273.088 270.694 274.348 268.804 273.076C266.914 271.804 266.885 268.539 268.741 265.747C269.013 265.337 269.318 264.951 269.654 264.591L260.331 243.529C259.209 244.297 257.967 244.494 257.076 243.899C255.736 243.009 255.712 240.673 257.03 238.714Z" fill="#D7E8F0"/>
<path d="M327.956 239.824H342.406C343.067 239.823 343.713 239.63 344.266 239.269C344.819 238.908 345.255 238.394 345.521 237.789C345.601 237.607 345.644 237.41 345.649 237.211C345.647 236.817 345.49 236.439 345.21 236.16C344.931 235.882 344.552 235.726 344.157 235.726H328.8C329.522 236.934 329.158 238.627 327.956 239.824Z" fill="#D7E8F0"/>
<path d="M318.616 238.344C318.617 238.737 318.775 239.113 319.053 239.39C319.331 239.668 319.708 239.824 320.101 239.824H327.956C329.158 238.627 329.522 236.934 328.8 235.714H321.864C321.204 235.714 320.558 235.906 320.005 236.266C319.452 236.626 319.016 237.139 318.749 237.743C318.664 237.932 318.618 238.137 318.616 238.344Z" fill="#3FBDF1"/>
<path d="M322.229 239.824C322.271 239.903 322.319 239.978 322.373 240.049C323.402 241.46 325.639 241.592 327.373 240.327C327.579 240.175 327.772 240.006 327.951 239.824C329.153 238.627 329.517 236.934 328.795 235.714C328.757 235.634 328.71 235.559 328.656 235.489C327.633 234.073 325.396 233.951 323.662 235.206C323.457 235.36 323.264 235.53 323.084 235.714C321.882 236.916 321.518 238.598 322.229 239.824Z" fill="white"/>
<path d="M315.011 247.413C315.013 247.807 315.172 248.183 315.451 248.46C315.73 248.737 316.108 248.893 316.502 248.893H331.663C330.929 247.667 331.293 246.003 332.495 244.783H318.236C317.574 244.784 316.927 244.976 316.373 245.337C315.819 245.699 315.382 246.212 315.115 246.818C315.042 247.008 315.007 247.209 315.011 247.413Z" fill="#3FBDF1"/>
<path d="M331.64 248.893H338.773C339.432 248.893 340.077 248.702 340.63 248.342C341.183 247.983 341.62 247.472 341.888 246.87C341.97 246.688 342.015 246.491 342.021 246.292C342.022 246.096 341.983 245.903 341.909 245.722C341.835 245.542 341.726 245.378 341.588 245.24C341.449 245.102 341.285 244.992 341.105 244.918C340.924 244.843 340.731 244.806 340.536 244.806H332.472C331.27 245.985 330.906 247.667 331.64 248.893Z" fill="#D7E8F0"/>
<path d="M331.638 248.893C331.672 248.972 331.714 249.048 331.766 249.118C332.789 250.534 335.026 250.661 336.76 249.401C336.964 249.246 337.158 249.076 337.338 248.893C338.528 247.69 338.892 246.003 338.181 244.783C338.139 244.705 338.093 244.63 338.043 244.558C337.008 243.147 334.771 243.02 333.037 244.286C332.831 244.436 332.638 244.602 332.459 244.783C331.269 245.985 330.904 247.667 331.638 248.893Z" fill="white"/>
<path d="M326.57 257.898H335.645C336.305 257.897 336.951 257.705 337.505 257.345C338.059 256.985 338.497 256.472 338.766 255.869C338.845 255.686 338.888 255.49 338.893 255.291C338.893 254.895 338.736 254.515 338.457 254.234C338.177 253.954 337.798 253.795 337.402 253.794H327.431C328.148 255.014 327.778 256.696 326.57 257.898Z" fill="#3FBDF1"/>
<path d="M311.876 256.424C311.877 256.619 311.916 256.811 311.991 256.99C312.066 257.169 312.175 257.332 312.314 257.469C312.452 257.605 312.615 257.714 312.795 257.787C312.975 257.861 313.167 257.899 313.362 257.898H326.569C327.759 256.696 328.129 255.008 327.413 253.782H315.124C314.463 253.782 313.815 253.975 313.262 254.337C312.708 254.7 312.273 255.216 312.009 255.823C311.924 256.012 311.878 256.217 311.876 256.424Z" fill="#D7E8F0"/>
<path d="M320.859 257.898C320.9 257.977 320.949 258.052 321.003 258.123C322.026 259.539 324.257 259.661 325.997 258.401C326.202 258.248 326.396 258.081 326.575 257.898C327.766 256.696 328.136 255.008 327.419 253.782C327.381 253.703 327.335 253.627 327.28 253.557C326.246 252.152 324.015 252.031 322.275 253.285C322.07 253.437 321.877 253.603 321.697 253.782C320.506 254.985 320.136 256.678 320.859 257.898Z" fill="white"/>
<path d="M267.91 300.369H276.99C277.65 300.368 278.295 300.176 278.848 299.816C279.401 299.456 279.837 298.943 280.106 298.34C280.185 298.158 280.228 297.961 280.233 297.762C280.233 297.367 280.076 296.988 279.796 296.708C279.516 296.428 279.137 296.271 278.742 296.271H268.771C269.471 297.485 269.101 299.167 267.91 300.369Z" fill="#3FBDF1"/>
<path d="M231.877 298.895C231.878 299.09 231.917 299.281 231.992 299.461C232.067 299.64 232.177 299.803 232.315 299.94C232.453 300.077 232.616 300.185 232.796 300.259C232.976 300.332 233.169 300.37 233.363 300.369H267.91C269.101 299.167 269.47 297.479 268.754 296.26H235.126C234.465 296.259 233.818 296.451 233.265 296.812C232.711 297.174 232.276 297.688 232.01 298.294C231.928 298.484 231.883 298.688 231.877 298.895Z" fill="#D7E8F0"/>
<path d="M262.181 300.369C262.223 300.448 262.272 300.524 262.326 300.595C263.349 302.011 265.58 302.132 267.32 300.878C267.524 300.722 267.717 300.552 267.898 300.369C269.089 299.167 269.458 297.479 268.742 296.26C268.704 296.179 268.657 296.104 268.603 296.034C267.568 294.624 265.337 294.503 263.598 295.757C263.392 295.909 263.198 296.077 263.02 296.26C261.835 297.456 261.459 299.15 262.181 300.369Z" fill="white"/>
<path d="M39.4085 322.628C39.4085 322.628 20.3345 408.791 69.401 426.789C118.467 444.788 251.009 427.882 195.925 365.712C140.842 303.542 39.4085 322.628 39.4085 322.628Z" fill="#2E2E2E"/>
<path d="M277.485 131.206C284.154 129.815 290.915 128.913 297.715 128.507C297.86 128.507 297.981 128.507 298.108 128.507C302.576 128.212 310.402 128.085 314.87 128.039" stroke="black" stroke-width="4.05" stroke-miterlimit="10"/>
<path d="M244.434 145.465C244.386 145.495 244.357 145.53 244.309 145.56" stroke="black" stroke-width="4.05" stroke-miterlimit="10"/>
<path d="M320.473 109.242C317.063 111.034 313.144 109.82 311.641 106.768" stroke="black" stroke-width="4.05" stroke-miterlimit="10"/>
<path d="M300.676 65.6897C300.522 68.3416 301.203 70.975 302.622 73.2199C304.041 75.4654 306.128 77.2098 308.589 78.2092C309.11 77.2538 309.855 76.4405 310.762 75.8394C314.594 73.3598 313.912 79.9837 324.316 78.2381C338.738 75.8047 342.414 80.8275 342.414 80.8275C342.731 81.2668 341.836 84.1337 341.708 84.6597C341.13 87.7404 340.552 90.8038 340.026 93.9077C339.687 95.7879 339.344 97.6566 338.998 99.5143C339.26 99.26 339.538 99.0224 339.83 98.8033C342.2 95.1041 345.674 90.9541 349.459 94.3412C350.219 95.0463 350.802 95.922 351.159 96.8959C352.893 101.607 349.575 104.635 345.697 106.45C344.674 107.069 343.586 107.575 342.454 107.959C342.645 109.15 343.437 113.895 343.437 113.906C343.518 114.392 353.147 108.456 353.95 107.733C355.402 105.814 356.521 103.665 357.262 101.375C360.256 91.9309 359.748 79.7236 353.719 71.9552C352.222 70.0305 353.222 68.9207 353.656 67.048C353.677 66.9469 353.667 66.8423 353.627 66.7475C353.588 66.6521 353.521 66.5712 353.435 66.5145C353.349 66.4579 353.248 66.4284 353.145 66.4296C353.042 66.4313 352.942 66.4631 352.858 66.522C349.61 68.5624 343.731 66.4758 343.731 66.4758C324.657 55.0196 314.883 62.1061 310.207 62.4645C308.311 62.5945 306.428 62.0587 304.884 60.9501C304.612 61.4865 304.2 61.9385 303.691 62.2581C303.182 62.5778 302.595 62.7529 301.994 62.765L301.809 63.7592C301.667 64.5146 301.267 65.1973 300.676 65.6897Z" fill="#242424"/>
<path d="M308.601 78.2323C306.139 77.2335 304.052 75.4891 302.633 73.2435C301.214 70.998 300.533 68.3646 300.688 65.7128C300.744 64.6943 300.891 63.6828 301.127 62.6898L301.295 62.7245C301.522 62.7759 301.755 62.7933 301.988 62.7765C302.589 62.765 303.175 62.5898 303.685 62.2702C304.194 61.9506 304.607 61.498 304.878 60.9616C305.037 60.6634 305.149 60.3414 305.208 60.0079L306.098 55.1702C306.098 55.1702 308.988 59.0831 313.612 58.719C318.236 58.3548 328.01 51.2687 347.136 62.7303C347.136 62.7303 351.725 64.4238 354.973 62.3835C355.058 62.3251 355.158 62.2927 355.261 62.2916C355.364 62.2904 355.464 62.3199 355.55 62.3766C355.636 62.4332 355.703 62.5141 355.742 62.6089C355.782 62.7043 355.791 62.8089 355.771 62.9095C355.338 64.7764 355.627 66.285 357.124 68.2097C363.152 75.9781 363.661 88.1854 360.667 97.6299C359.356 101.544 357.028 105.039 353.922 107.756C353.118 108.479 343.489 114.415 343.408 113.93C343.408 113.93 342.616 109.173 342.425 107.982L342.379 107.71L342.651 107.629C343.681 107.311 344.688 106.925 345.668 106.473C349.546 104.658 352.881 101.63 351.13 96.919C350.773 95.9456 350.191 95.07 349.43 94.3642C345.645 90.9771 342.171 95.1272 339.801 98.8264C339.343 99.5287 338.966 100.281 338.68 101.069C338.772 100.56 338.865 100.063 338.963 99.5547C339.31 97.6935 339.652 95.8248 339.992 93.9481C340.57 90.8615 341.107 87.7981 341.674 84.7001C341.778 84.1741 342.697 81.3072 342.379 80.8679C342.379 80.8679 338.703 75.8451 324.282 78.2785C313.878 80.0125 314.56 73.4002 310.728 75.8798C309.821 76.4809 309.075 77.2947 308.554 78.2496C308.393 78.5611 308.25 78.8813 308.127 79.2091C308.106 79.2501 308.088 79.2929 308.075 79.3362C307.814 80.0529 307.578 80.7754 307.346 81.4806C305.185 88.353 303.757 95.7746 304.52 102.994C305.45 111.745 311.826 122.033 321.97 121.16C325.161 120.786 328.274 119.912 331.195 118.571" stroke="black" stroke-width="4.05" stroke-miterlimit="10"/>
<path d="M309.707 96.8838C310.699 96.8554 311.476 95.8601 311.443 94.6602C311.408 93.4603 310.577 92.5106 309.584 92.5389C308.592 92.5667 307.814 93.562 307.849 94.7619C307.883 95.9618 308.714 96.9115 309.707 96.8838Z" fill="black"/>
<path d="M323.29 100.532C324.282 100.504 325.059 99.5085 325.026 98.3091C324.991 97.1092 324.16 96.1589 323.167 96.1873C322.175 96.2156 321.398 97.2109 321.432 98.4102C321.466 99.6102 322.297 100.56 323.29 100.532Z" fill="black"/>
<path d="M317.425 101.335C317.425 101.335 312.171 102.491 312.703 99.7975C312.864 98.9536 314.182 90.6651 314.182 90.6651C314.182 90.6651 311.732 85.729 305.322 86.8792" stroke="black" stroke-width="4.05" stroke-miterlimit="10"/>
<path d="M319.785 89.9252C319.785 89.9252 328.114 88.5091 331.305 95.1619" stroke="black" stroke-width="4.05" stroke-miterlimit="10"/>
<path d="M314.963 127.969C308.402 131.437 304.9 139.784 307.645 145.824C312.223 155.887 324.274 158.846 334.233 155.939C345.308 152.702 353.446 142.494 352.96 130.79" stroke="black" stroke-width="4.05" stroke-miterlimit="10"/>
<path d="M354.683 319.86C373.705 275.654 380.612 197.63 380.612 197.63V306.49C380.611 308.246 380.956 309.985 381.628 311.607C382.3 313.23 383.285 314.704 384.526 315.945C385.768 317.187 387.242 318.172 388.864 318.843C390.486 319.515 392.225 319.86 393.981 319.86H436.175C437.757 319.884 439.292 319.324 440.486 318.286C441.68 317.248 442.448 315.805 442.643 314.236C442.728 313.371 442.631 312.498 442.357 311.673C442.084 310.848 441.641 310.09 441.057 309.446C440.472 308.804 439.76 308.29 438.964 307.939C438.17 307.588 437.31 307.408 436.441 307.409H419.159C418.47 307.407 417.79 307.248 417.172 306.943C416.554 306.638 416.013 306.197 415.592 305.652C415.17 305.106 414.879 304.472 414.74 303.797C414.601 303.122 414.617 302.424 414.789 301.757C425.193 260.719 431.626 212.548 418.084 169.92C415.286 161.123 409.258 153.286 402.137 147.228C393.964 140.246 383.889 137.044 373.566 134.674C366.757 133.113 359.889 131.822 352.96 130.801C352.94 130.808 352.918 130.808 352.897 130.801C352.851 130.801 352.804 130.801 352.775 130.801H352.729H352.666H352.573" stroke="black" stroke-width="4.05" stroke-miterlimit="10"/>
<path d="M348.603 111.161L347.84 124.969C347.767 126.319 348.191 127.648 349.031 128.707C349.871 129.765 351.07 130.479 352.4 130.715H352.574C352.604 130.707 352.636 130.707 352.666 130.715H352.695H352.776" stroke="black" stroke-width="4.05" stroke-miterlimit="10"/>
<path d="M352.897 130.778H352.776H352.73H352.695H352.666H352.574H352.4C351.07 130.543 349.871 129.829 349.031 128.77C348.191 127.711 347.767 126.382 347.84 125.033L348.603 111.224" stroke="black" stroke-width="4.05" stroke-miterlimit="10"/>
<path d="M316.055 120.299C315.679 120.149 316.055 135.72 306.767 142.483" stroke="black" stroke-width="4.05" stroke-miterlimit="10"/>
<path d="M191.699 319.865H161.944" stroke="black" stroke-width="4.05" stroke-miterlimit="10"/>
<path d="M482.392 319.865H238.026" stroke="black" stroke-width="4.05" stroke-miterlimit="10"/>
<path d="M105.629 173.672C105.916 179.501 105.707 185.345 105.005 191.139C104.103 197.948 97.8086 206.6 96.4445 213.334C94.4966 223.021 97.4444 233.032 101.49 242.026C106.38 252.898 114.085 263.834 113.334 276.284C112.949 281.706 111.335 286.97 108.615 291.677C105.895 296.383 102.141 300.409 97.6352 303.45C91.4633 307.579 84.414 310.211 77.0468 311.137C76.018 311.259 74.9718 311.357 73.9256 311.386C73.3476 311.386 72.7696 311.322 72.1916 311.276C52.5972 309.617 32.5002 294.67 32.5464 273.862C32.5464 260.568 42.6499 250.164 44.355 237.263C45.4011 229.373 43.0891 221.177 45.2277 213.519C48.6957 201.288 62.0997 194.618 67.9722 183.359C72.2956 175.047 73.0008 165.348 76.4226 156.632C81.1853 144.494 88.7918 130.622 99.1958 129.466C102.215 129.808 105.133 130.76 107.773 132.264C114.224 135.732 115.865 135.951 117.177 139.044C118.518 142.275 116.518 145.725 113.178 146.76C107.536 148.546 105.103 160.008 105.629 173.672Z" fill="#B9B9B9"/>
<path d="M111.299 134.142C128.234 129.235 138.997 136.454 146.696 144.777C154.395 153.101 154.036 162.551 154.036 162.551" stroke="black" stroke-width="4.05" stroke-miterlimit="10"/>
<path d="M163.828 296.93C163.572 310.161 161.896 323.326 158.828 336.199" stroke="black" stroke-width="4.05" stroke-miterlimit="10"/>
<path d="M205.912 404.681C199.71 415.351 185 422.928 167.001 427.645C135.061 436.014 92.7742 435.361 69.4114 426.784C20.3162 408.791 39.4018 322.628 39.4018 322.628C39.4018 322.628 124.316 306.646 180.937 351.528C186.346 355.804 191.367 360.548 195.941 365.706C202.201 372.787 206.045 379.266 207.86 385.185C210.085 392.56 209.195 399.057 205.912 404.681Z" stroke="black" stroke-width="4.05" stroke-miterlimit="10"/>
<path d="M173.365 426.188C173.365 426.188 143.615 508.767 193.595 529.858C243.574 550.95 10.0566 553.759 61.6027 529.858C113.149 505.958 83.5204 431.234 83.5204 431.234" stroke="black" stroke-width="4.05" stroke-miterlimit="10"/>
<path d="M233.881 145.558C233.263 143.668 233.517 137.096 233.72 133.385C233.758 132.685 234.069 132.026 234.584 131.55C235.1 131.075 235.781 130.818 236.482 130.836L295.86 131.356C296.861 131.366 297.819 131.77 298.523 132.48C299.228 133.192 299.623 134.153 299.623 135.154V179.712C299.623 180.212 299.524 180.707 299.332 181.169C299.14 181.631 298.859 182.05 298.505 182.403C298.15 182.756 297.73 183.035 297.267 183.225C296.804 183.415 296.308 183.512 295.808 183.509L237.945 183.295C237.107 183.261 236.314 182.904 235.733 182.298C235.152 181.693 234.829 180.886 234.829 180.047V176.648C238.945 178.567 246.725 179.157 246.725 179.157C249.493 179.082 253.869 178.747 256.267 177.371C258.464 176.111 261.238 174.302 261.614 171.562C261.759 170.503 261.479 169.429 260.834 168.575C260.19 167.721 259.234 167.158 258.175 167.007C257.538 166.88 256.88 166.926 256.267 167.14" stroke="black" stroke-width="4.05" stroke-miterlimit="10"/>
<path d="M291.832 269.036C291.805 269.831 291.537 270.599 291.063 271.238C289.705 272.909 287.017 272.579 285.191 272.065C277.509 269.88 272.897 278.203 269.995 283.81C262.666 297.982 251.673 311.149 237.957 319.865C237.067 320.443 236.159 320.986 235.24 321.518C221.836 329.252 204.468 327.813 191.503 319.784L208.08 279.064L209.722 280.376C219.733 288.277 232.055 283.844 240.587 276.047C242.955 273.89 245.044 271.445 246.806 268.77C249.742 264.256 252.257 259.383 256.274 255.713C261.834 250.632 269.972 249.638 277.001 251.788C284.029 253.939 292.468 260.851 291.832 269.036Z" fill="white"/>
<path d="M291.762 266.152C291.762 266.152 289.878 256.176 272.891 263.961" stroke="black" stroke-width="4.05" stroke-miterlimit="10"/>
<path d="M282.313 254.175C282.313 254.175 271.724 250.788 265.828 258.881" stroke="black" stroke-width="4.05" stroke-miterlimit="10"/>
<path d="M68.5624 311.293C71.39 311.545 74.2354 311.499 77.0532 311.155C84.4187 310.216 91.4651 307.579 97.6358 303.45C102.141 300.409 105.897 296.383 108.616 291.676C111.336 286.969 112.949 281.706 113.334 276.284C114.086 263.828 106.398 252.892 101.491 242.02C97.445 233.021 94.4972 223.01 96.4509 213.334C97.8092 206.595 104.092 197.948 105 191.133C105.705 185.339 105.918 179.496 105.635 173.666C105.109 159.996 107.537 148.523 113.178 146.777C116.519 145.743 118.525 142.286 117.178 139.061C115.889 135.963 114.23 135.778 107.774 132.27C90.9425 123.114 79.238 140.182 72.776 156.638C69.3485 165.36 68.6549 175.047 64.3256 183.359C58.4532 194.624 45.0205 201.277 41.5872 213.531C39.4428 221.183 41.7548 229.385 40.7144 237.263C39.0151 250.158 28.929 260.557 28.9001 273.862C28.8538 294.664 48.974 309.623 68.5624 311.293Z" stroke="black" stroke-width="4.05" stroke-miterlimit="10"/>
<path d="M205.912 404.681C204.462 415.004 202.3 426.847 199.919 438.702C193.168 472.301 184.578 506.103 184.578 506.103" stroke="black" stroke-width="4.05" stroke-miterlimit="10"/>
<path d="M207.838 385.185C207.867 383.925 207.884 382.769 207.838 381.671C207.323 357.973 190.284 352.308 182.955 350.95C181.861 350.736 180.755 350.595 179.643 350.528" stroke="black" stroke-width="4.05" stroke-miterlimit="10"/>
<path d="M187.122 495.855C188.065 495.277 189.145 494.961 190.252 494.94C191.357 494.919 192.449 495.193 193.413 495.734C194.378 496.275 195.181 497.064 195.739 498.019C196.297 498.974 196.591 500.061 196.589 501.166C196.589 501.247 196.589 501.346 196.589 501.461C196.497 504.315 195.745 507.109 194.392 509.625C193.04 512.14 191.123 514.307 188.792 515.957L180.758 521.674" stroke="black" stroke-width="4.05" stroke-miterlimit="10"/>
<path d="M95.8555 220.975C96.9768 220.519 98.1213 220.114 99.2773 219.738C101.711 215.241 101.335 205.398 101.104 201.82L103.537 196.335C110.254 200.462 119.143 198.913 127.391 196.04C128.55 195.636 129.676 195.145 130.761 194.572C135.998 192.168 143.338 186.48 140.044 183.544C136.749 180.608 136.98 174.955 139.09 171.487C139.732 170.423 140.87 169.377 142.055 169.707C142.853 169.926 143.367 170.672 143.824 171.36C144.402 172.221 144.98 173.047 145.558 173.891C145.76 174.175 146.09 174.469 146.402 174.342C146.533 174.255 146.636 174.131 146.696 173.984C147.714 171.891 147.523 168.892 147.696 166.597C147.899 163.863 148.055 161.112 148.136 158.366C148.182 156.852 148.494 155.228 150.118 154.696C150.446 154.57 150.798 154.52 151.148 154.55C151.498 154.58 151.837 154.689 152.138 154.869C152.44 155.05 152.696 155.297 152.888 155.591C153.08 155.886 153.202 156.22 153.245 156.569C154.427 163.212 154.601 169.994 153.76 176.689C152.962 183.7 151.523 191.139 147.026 196.792C144.464 200.053 141.031 202.521 137.125 203.913C133.345 205.225 133.466 209.785 133.466 213.785V220.426C145.09 222.784 156.008 225.628 165.036 233.72C171.007 239.179 176.625 245.011 181.856 251.182C198.323 270.504 201.884 274.128 209.814 280.376C219.825 288.278 232.154 283.844 240.679 276.047C243.043 273.889 245.128 271.444 246.887 268.77C249.823 264.256 252.337 259.383 256.349 255.713C261.915 250.632 270.053 249.638 277.082 251.788C284.11 253.939 292.56 260.851 291.89 269.036C291.862 269.83 291.596 270.597 291.127 271.238C289.769 272.909 287.081 272.579 285.255 272.065C277.567 269.88 272.96 278.203 270.053 283.81C262.73 297.982 251.731 311.149 238.015 319.865C237.125 320.443 236.223 320.987 235.298 321.518C219.975 330.362 199.433 327.206 186.255 315.941L154.465 288.954" stroke="black" stroke-width="4.05" stroke-miterlimit="10"/>
<path d="M99.2784 219.738C99.2784 219.738 114.462 215.045 133.467 220.443" stroke="black" stroke-width="4.05" stroke-miterlimit="10"/>
<path d="M234.83 176.648C234.83 176.648 234.946 196.3 239.634 203.866" stroke="black" stroke-width="4.05" stroke-miterlimit="10"/>
<path d="M244.986 67.017C241.379 73.1727 241.547 77.5424 242.483 84.6345C242.561 85.2385 242.466 85.8517 242.209 86.4043C241.953 86.9569 241.546 87.4256 241.035 87.7568C240.524 88.088 239.93 88.2678 239.32 88.2759C238.712 88.2834 238.113 88.1192 237.593 87.8019C216.785 75.8258 197.312 85.2992 172.47 79.4325C163.349 77.2881 151.98 72.8548 144.183 65.7165C141.596 61.8746 140.215 57.3482 140.218 52.7173C140.218 33.3021 166.742 17.5574 199.445 17.5574C220.409 17.5574 238.824 24.0252 249.356 33.7703C249.356 33.7703 249.356 33.7703 249.384 33.805C252.027 37.6036 253.469 42.1081 253.523 46.735C253.523 53.723 248.344 61.237 244.986 67.017Z" fill="#D7E8F0"/>
<path d="M253.431 46.7465V47.2378C253.309 54.0408 249.905 60.3642 245.864 65.8378C243.159 69.5023 239.952 73.5657 240.715 78.0567C241.05 80.0335 242.154 81.8311 242.449 83.8367C242.743 85.8424 241.668 88.2989 239.663 88.4029C238.391 88.4665 237.304 87.559 236.299 86.7787C230.328 82.1547 222.571 80.4207 215.028 80.1202C207.485 79.8196 199.954 80.808 192.405 81.0219C181.527 81.334 170.476 79.9757 160.425 75.8199C151.39 72.0513 143.154 65.9245 137.732 57.7689C132.409 49.729 135.559 38.0648 141.235 31.0768C146.564 24.5223 154.275 20.326 162.187 17.3724C183.464 9.42493 207.751 9.61567 228.738 18.3146C234.969 20.8693 240.98 24.2448 245.662 29.1116C250.228 33.857 253.39 40.1804 253.431 46.7465Z" stroke="black" stroke-width="4.05" stroke-miterlimit="10"/>
<path d="M166.117 54.4801C170.63 54.4801 174.29 50.8214 174.29 46.3072C174.29 41.7936 170.63 38.1343 166.117 38.1343C161.603 38.1343 157.944 41.7936 157.944 46.3072C157.944 50.8214 161.603 54.4801 166.117 54.4801Z" fill="white"/>
<path d="M192.542 54.4801C197.056 54.4801 200.715 50.8214 200.715 46.3072C200.715 41.7936 197.056 38.1343 192.542 38.1343C188.028 38.1343 184.369 41.7936 184.369 46.3072C184.369 50.8214 188.028 54.4801 192.542 54.4801Z" fill="white"/>
<path d="M219.485 54.4801C223.998 54.4801 227.658 50.8214 227.658 46.3072C227.658 41.7936 223.998 38.1343 219.485 38.1343C214.971 38.1343 211.312 41.7936 211.312 46.3072C211.312 50.8214 214.971 54.4801 219.485 54.4801Z" fill="white"/>
<g opacity="0.54">
<path opacity="0.54" d="M381.779 408.646L378.456 456.62C376.936 459.516 375.037 462.197 372.809 464.591C372.566 464.504 372.323 464.411 372.086 464.302C371.641 464.151 371.202 463.972 370.786 463.799C364.052 460.845 358.937 455.343 357.446 449.106C356.099 443.644 357.313 437.743 354.712 432.61C351.538 426.287 342.909 422.322 341.851 415.189C340.857 408.513 346.868 402.392 345.897 395.849C344.741 388.451 335.695 384.064 334.002 376.839C332.944 372.348 333.892 367.192 333.493 362.568C333.053 357.395 332.186 352.268 330.898 347.239C344.29 346.268 357.919 353.649 362.26 364.221C365.803 372.891 363.671 382.989 369.196 390.873C372.213 395.144 377.236 398.34 379.837 402.808C380.64 404.202 381.224 405.711 381.571 407.282C381.571 407.392 381.571 407.502 381.612 407.588C381.612 407.767 381.658 407.895 381.681 408.028C381.739 408.426 381.779 408.646 381.779 408.646Z" fill="#63F13F"/>
<path opacity="0.54" d="M381.804 408.606C381.804 408.606 381.763 408.409 381.717 408.027C381.757 408.18 381.786 408.334 381.804 408.49C381.812 408.508 381.816 408.528 381.816 408.548C381.816 408.568 381.812 408.588 381.804 408.606Z" fill="#3FBDF1"/>
</g>
<path d="M426.05 389.884C424.316 396.115 414.82 399.901 413.675 406.288C412.664 411.952 418.918 417.235 417.883 422.986C416.779 429.153 407.791 432.564 404.491 438.014C401.803 442.442 403.057 447.534 401.67 452.244C400.063 457.597 394.734 462.377 387.706 464.908C387.266 465.065 386.85 465.215 386.405 465.348C386.162 465.417 385.896 465.504 385.654 465.567C383.342 463.654 380.654 460.284 378.475 456.649L381.781 408.646C384.359 406.461 387.307 404.461 389.359 402.034C391.584 399.415 392.619 396.554 393.278 393.554H393.347V393.225C394.312 388.491 394.399 383.532 396.624 379.041C401.138 369.903 415.305 363.533 429.246 364.371C427.931 368.688 427.031 373.12 426.559 377.607C426.16 381.578 427.142 386.029 426.05 389.884Z" fill="#B1FF9E"/>
<path d="M393.369 393.185V393.516H393.299L393.369 393.185Z" fill="#3FBDF1"/>
<path d="M393.369 393.185L393.3 393.514C392.641 396.514 391.606 399.375 389.381 401.993C387.329 404.421 384.381 406.421 381.803 408.606C381.813 408.576 381.813 408.543 381.803 408.513C381.785 408.357 381.756 408.203 381.716 408.051C381.716 407.918 381.67 407.791 381.647 407.611C381.647 407.525 381.647 407.415 381.607 407.305C381.26 405.734 380.675 404.226 379.873 402.831C377.272 398.363 372.249 395.167 369.232 390.896C369.232 390.896 370.596 368.383 382.115 361.533C393.039 355.06 393.369 389.439 393.369 393.185Z" fill="#D3D649"/>
<path d="M393.369 393.185V393.516H393.299L393.369 393.185Z" fill="#3FBDF1"/>
<path d="M381.781 408.514V408.647C381.781 408.647 381.741 408.45 381.694 408.068C381.733 408.214 381.762 408.363 381.781 408.514Z" fill="#3FBDF1"/>
<path d="M380.751 408.646C383.317 406.461 386.3 404.432 388.358 402.011C394.138 395.196 391.906 386.485 395.611 379.012C400.12 369.885 414.298 363.522 428.234 364.354C426.91 368.669 426.008 373.101 425.54 377.59C425.124 381.59 426.118 386.035 425.026 389.907C423.251 396.138 413.79 399.918 412.639 406.305C411.616 411.964 417.888 417.247 416.853 422.992C415.749 429.165 406.767 432.575 403.461 438.02C400.761 442.453 402.027 447.534 400.629 452.256C398.935 457.949 393.039 462.978 385.358 465.353C385.115 465.434 384.849 465.521 384.601 465.585C382.289 463.671 379.601 460.302 377.416 456.66" stroke="black" stroke-width="4.05" stroke-miterlimit="10"/>
<path d="M419.726 371.504C398.947 393.867 389.173 441.014 385.369 465.359C385.057 467.411 384.791 469.29 384.537 470.983" stroke="black" stroke-width="4.05" stroke-miterlimit="10"/>
<path d="M421.645 484.694L412.113 541.101C411.887 542.645 411.121 544.06 409.951 545.094C408.78 546.127 407.282 546.714 405.721 546.748H355.735C354.159 546.711 352.647 546.114 351.473 545.061C350.298 544.008 349.539 542.571 349.331 541.008L340.517 484.688L421.645 484.694Z" stroke="black" stroke-width="4.05" stroke-miterlimit="10"/>
<path d="M430.724 478.393C430.639 480.066 429.925 481.645 428.724 482.813C427.524 483.982 425.926 484.653 424.251 484.693H338.065C336.409 484.653 334.828 483.996 333.632 482.849C332.436 481.702 331.712 480.15 331.603 478.497C331.239 474.451 334.233 470.983 338.065 470.983H424.251C428.048 470.989 431.031 474.405 430.724 478.393Z" stroke="black" stroke-width="4.05" stroke-miterlimit="10"/>
<path d="M371.786 464.579C375.486 460.909 380.017 452.724 382.023 446.043C383.676 440.534 380.768 434.864 380.098 429.211C379.058 420.362 383.45 410.848 378.821 402.826C376.237 398.352 371.214 395.173 368.197 390.89C362.642 383 364.775 372.908 361.226 364.256C356.885 353.672 343.262 346.291 329.876 347.274C331.155 352.304 332.022 357.431 332.471 362.603C332.87 367.227 331.893 372.382 332.968 376.868C334.661 384.093 343.748 388.468 344.863 395.872C345.846 402.415 339.829 408.542 340.817 415.206C341.881 422.35 350.499 426.298 353.683 432.633C356.273 437.771 355.059 443.667 356.4 449.123C358.082 455.944 364.041 461.938 371.786 464.579Z" stroke="black" stroke-width="4.05" stroke-miterlimit="10"/>
<path d="M338.049 355.562C357.995 381.48 367.382 436.095 371.075 464.29C371.388 466.735 371.653 468.978 371.89 470.983" stroke="black" stroke-width="4.05" stroke-miterlimit="10"/>
<path d="M368.186 390.89C368.186 390.89 369.556 368.377 381.07 361.533C392.583 354.69 392.341 393.04 392.341 393.04" stroke="black" stroke-width="4.05" stroke-miterlimit="10"/>
<path d="M380.752 408.646C380.752 408.646 378.4 395.768 382.527 383.104" stroke="black" stroke-width="4.05" stroke-miterlimit="10"/>
</svg>
