<svg version="1.0" xmlns="http://www.w3.org/2000/svg" width="534.000000pt" height="400.000000pt" viewBox="140.10000610351562 90.00001525878906 254.10736083984375 220.00001525878906" preserveAspectRatio="xMidYMid meet">

<g transform="translate(0.000000,400.000000) scale(0.100000,-0.100000)" fill="#000000" stroke="none">
<path d="M1715 2678 c-137 -232 -264 -447 -282 -478 l-32 -56 98 -164 97 -165
181 -3 181 -2 76 -133 c42 -73 76 -137 76 -142 0 -5 -41 -77 -90 -161 l-91
-151 99 -159 99 -159 550 -3 551 -2 78 137 c42 76 83 147 90 158 12 18 4 36
-71 169 -47 82 -85 151 -85 153 0 3 36 70 81 149 l81 144 181 0 182 0 90 166
c50 91 89 170 87 177 -4 14 -510 906 -525 925 -7 9 -58 12 -193 12 l-183 0
-96 -155 -97 -155 -164 0 -164 0 -80 160 -80 160 -198 0 -197 0 -250 -422z
m1921 -35 c131 -230 246 -433 257 -450 l19 -33 -170 0 -170 0 -88 155 -89 155
-531 0 -532 0 -76 134 c-42 74 -76 137 -76 140 0 3 238 7 529 8 l528 3 -83
148 c-46 82 -84 151 -84 153 0 2 74 4 164 4 l163 0 239 -417z m-1584 268 l78
-139 -86 -149 c-48 -81 -87 -153 -87 -159 0 -6 115 -215 256 -466 142 -250
257 -459 257 -463 0 -14 -152 -265 -158 -261 -4 2 -122 207 -262 455 -140 247
-258 450 -261 451 -4 0 -46 -72 -95 -160 -67 -120 -92 -156 -100 -147 -6 7
-46 70 -88 141 -56 94 -75 134 -69 146 19 40 528 890 533 890 3 0 40 -63 82
-139z m766 -789 c-7 -19 -142 -252 -144 -249 -7 7 -144 246 -144 251 0 3 66 6
146 6 80 0 144 -4 142 -8z m645 -1 l68 -6 -261 -453 c-143 -249 -260 -454
-260 -457 0 -2 80 -6 178 -7 l178 -3 -80 -137 -80 -138 -518 0 c-285 0 -518 3
-518 8 1 4 36 66 78 137 l78 130 177 3 177 2 23 38 c13 20 135 229 272 465
l248 427 86 -1 c47 -1 117 -4 154 -8z"></path>
</g>
</svg>