<svg width="15" height="15" viewBox="0 0 15 15" fill="none" xmlns="http://www.w3.org/2000/svg">
<path d="M7.08333 0C3.17333 0 0 3.1672 0 7.06963C0 10.9721 3.17333 14.1393 7.08333 14.1393C10.9933 14.1393 14.1667 10.9721 14.1667 7.06963C14.1667 3.1672 10.9933 0 7.08333 0ZM1.41667 7.06963C1.41667 6.63838 1.47333 6.21421 1.56542 5.81124L4.95125 9.19052V9.89749C4.95125 10.6751 5.58875 11.3114 6.36792 11.3114V12.6759C3.58417 12.3224 1.41667 9.94697 1.41667 7.06963ZM11.2554 10.8872C11.0713 10.3146 10.5471 9.89749 9.90958 9.89749H9.20125V7.7766C9.20125 7.38777 8.8825 7.06963 8.49292 7.06963H4.24292V5.65571H5.65958C6.04917 5.65571 6.36792 5.33757 6.36792 4.94874V3.53482H7.78458C8.56375 3.53482 9.20125 2.89855 9.20125 2.12089V1.83103C11.2767 2.66525 12.75 4.70131 12.75 7.06963C12.75 8.54012 12.1763 9.88335 11.2554 10.8872Z" fill="black"/>
</svg>
