<svg width="23" height="23" viewBox="0 0 23 23" fill="none" xmlns="http://www.w3.org/2000/svg">
<g filter="url(#filter0_d_251_58)">
<path d="M19.333 2.66695C18.7459 2.07984 17.9496 1.75 17.1193 1.75C16.289 1.75 15.4927 2.07984 14.9056 2.66695L4.44757 13.125C4.09213 13.4804 3.84225 13.9275 3.72569 14.4165L2.76757 18.4432C2.74162 18.5523 2.74406 18.6662 2.77463 18.774C2.80521 18.8819 2.86291 18.9801 2.94222 19.0594C3.02154 19.1386 3.11984 19.1962 3.22773 19.2266C3.33563 19.2571 3.44953 19.2594 3.55857 19.2333L7.58444 18.2743C8.07372 18.1579 8.52111 17.908 8.87681 17.5525L9.88393 16.5453C9.75738 15.9726 9.7199 15.3838 9.77281 14.7997L7.94844 16.625C7.76469 16.8087 7.53369 16.9382 7.28081 16.9986L4.29182 17.7108L5.00319 14.7218C5.06356 14.4681 5.19306 14.2371 5.37681 14.0533L14.1251 5.30245L16.6976 7.87495L14.9248 9.6477C15.5087 9.59558 16.097 9.63305 16.6696 9.75883L19.333 7.09533C19.9202 6.5082 20.25 5.71189 20.25 4.88158C20.25 4.05126 19.9202 3.25495 19.333 2.66783V2.66695ZM15.8331 3.59445C16.002 3.42554 16.2025 3.29155 16.4232 3.20013C16.6439 3.10872 16.8804 3.06167 17.1193 3.06167C17.3582 3.06167 17.5947 3.10872 17.8154 3.20013C18.0361 3.29155 18.2366 3.42554 18.4056 3.59445C18.5745 3.76336 18.7085 3.96389 18.7999 4.18459C18.8913 4.40528 18.9383 4.64182 18.9383 4.8807C18.9383 5.11958 18.8913 5.35612 18.7999 5.57682C18.7085 5.79751 18.5745 5.99804 18.4056 6.16695L17.6251 6.94658L15.0526 4.37495L15.8331 3.59533V3.59445ZM12.6174 12.229C12.6827 12.4552 12.7017 12.6923 12.6732 12.926C12.6447 13.1597 12.5693 13.3853 12.4516 13.5892C12.3339 13.7931 12.1762 13.9712 11.9881 14.1127C11.7999 14.2543 11.5851 14.3564 11.3566 14.413L10.8456 14.5398C10.7637 15.0638 10.7654 15.5975 10.8508 16.121L11.3233 16.2347C11.5539 16.2903 11.7709 16.3921 11.9609 16.5341C12.151 16.6761 12.3102 16.8552 12.4288 17.0607C12.5475 17.2661 12.6231 17.4935 12.6512 17.729C12.6793 17.9646 12.6591 18.2034 12.5921 18.431L12.4284 18.9831C12.8134 19.3208 13.2509 19.5956 13.7278 19.7898L14.1592 19.3357C14.3227 19.1638 14.5194 19.0268 14.7374 18.9333C14.9555 18.8397 15.1902 18.7915 15.4275 18.7915C15.6648 18.7915 15.8995 18.8397 16.1176 18.9333C16.3356 19.0268 16.5323 19.1638 16.6958 19.3357L17.1324 19.796C17.6059 19.6032 18.0441 19.3333 18.4292 18.9971L18.2559 18.3968C18.1906 18.1706 18.1717 17.9334 18.2003 17.6996C18.2288 17.4659 18.3042 17.2403 18.4221 17.0363C18.5399 16.8324 18.6976 16.6544 18.8859 16.5129C19.0742 16.3714 19.289 16.2693 19.5177 16.2128L20.0278 16.086C20.1097 15.562 20.1079 15.0283 20.0225 14.5048L19.55 14.3911C19.3195 14.3354 19.1027 14.2335 18.9127 14.0915C18.7228 13.9494 18.5637 13.7703 18.4451 13.5649C18.3265 13.3595 18.2509 13.1321 18.2229 12.8966C18.1949 12.6611 18.2151 12.4223 18.2822 12.1948L18.4449 11.6427C18.0599 11.3035 17.6211 11.0309 17.1464 10.836L16.7151 11.2892C16.5516 11.4613 16.3548 11.5983 16.1367 11.692C15.9186 11.7856 15.6837 11.8339 15.4463 11.8339C15.2089 11.8339 14.9741 11.7856 14.7559 11.692C14.5378 11.5983 14.341 11.4613 14.1776 11.2892L13.7418 10.8298C13.2658 11.0223 12.8283 11.2936 12.4442 11.6287L12.6174 12.229ZM15.4376 16.625C14.7376 16.625 14.1688 16.0378 14.1688 15.3125C14.1688 14.588 14.7376 14 15.4376 14C16.1376 14 16.7063 14.588 16.7063 15.3125C16.7063 16.0378 16.1376 16.625 15.4376 16.625Z" fill="#1E1E1E"/>
</g>
<defs>
<filter id="filter0_d_251_58" x="0.749756" y="0.75" width="21.5002" height="22.0459" filterUnits="userSpaceOnUse" color-interpolation-filters="sRGB">
<feFlood flood-opacity="0" result="BackgroundImageFix"/>
<feColorMatrix in="SourceAlpha" type="matrix" values="0 0 0 0 0 0 0 0 0 0 0 0 0 0 0 0 0 0 127 0" result="hardAlpha"/>
<feOffset dy="1"/>
<feGaussianBlur stdDeviation="1"/>
<feComposite in2="hardAlpha" operator="out"/>
<feColorMatrix type="matrix" values="0 0 0 0 0 0 0 0 0 0 0 0 0 0 0 0 0 0 0.25 0"/>
<feBlend mode="normal" in2="BackgroundImageFix" result="effect1_dropShadow_251_58"/>
<feBlend mode="normal" in="SourceGraphic" in2="effect1_dropShadow_251_58" result="shape"/>
</filter>
</defs>
</svg>
