<svg width="25" height="23" viewBox="0 0 25 23" fill="none" xmlns="http://www.w3.org/2000/svg">
<g filter="url(#filter0_d_251_65)">
<path d="M23 6.88058C23.0004 6.59553 22.9254 6.31544 22.7825 6.0688C22.6396 5.82216 22.4339 5.61776 22.1864 5.47639L13.3413 0.227097C13.0864 0.0783695 12.7965 0 12.5014 0C12.2063 0 11.9164 0.0783695 11.6615 0.227097L2.80332 5.47639C2.55853 5.62164 2.35575 5.82808 2.21491 6.07542C2.07406 6.32277 2 6.60251 2 6.88714C2 7.17177 2.07406 7.45151 2.21491 7.69886C2.35575 7.9462 2.55853 8.15264 2.80332 8.29789L5.32298 9.76769V13.4553C5.3245 13.7435 5.40014 14.0265 5.54263 14.277C5.68513 14.5275 5.88968 14.7372 6.13662 14.8858L11.714 18.1009C11.963 18.2388 12.243 18.3112 12.5276 18.3112C12.8123 18.3112 13.0923 18.2388 13.3413 18.1009L18.9187 14.8858C19.1656 14.7372 19.3702 14.5275 19.5127 14.277C19.6552 14.0265 19.7308 13.7435 19.7323 13.4553V9.72832L21.3596 8.77032V12.3398H23V6.88058ZM18.105 13.4422L12.5014 16.6705L6.96339 13.4553V10.7388L11.6615 13.5341C11.9173 13.6802 12.2068 13.7571 12.5014 13.7571C12.796 13.7571 13.0855 13.6802 13.3413 13.5341L18.0919 10.6994L18.105 13.4422ZM12.5014 12.1168L3.6432 6.86746L12.5014 1.60504L21.3596 6.85433L12.5014 12.1168Z" fill="black"/>
</g>
<defs>
<filter id="filter0_d_251_65" x="0" y="0" width="25" height="22.3112" filterUnits="userSpaceOnUse" color-interpolation-filters="sRGB">
<feFlood flood-opacity="0" result="BackgroundImageFix"/>
<feColorMatrix in="SourceAlpha" type="matrix" values="0 0 0 0 0 0 0 0 0 0 0 0 0 0 0 0 0 0 127 0" result="hardAlpha"/>
<feOffset dy="2"/>
<feGaussianBlur stdDeviation="1"/>
<feComposite in2="hardAlpha" operator="out"/>
<feColorMatrix type="matrix" values="0 0 0 0 0 0 0 0 0 0 0 0 0 0 0 0 0 0 0.25 0"/>
<feBlend mode="normal" in2="BackgroundImageFix" result="effect1_dropShadow_251_65"/>
<feBlend mode="normal" in="SourceGraphic" in2="effect1_dropShadow_251_65" result="shape"/>
</filter>
</defs>
</svg>
