<svg xmlns="http://www.w3.org/2000/svg" width="36" height="33" fill="none" viewBox="0 0 36 33"><g filter="url(#filter0_d_42_49)"><path fill="#fff" d="M9.6965 24.2716C9.50511 24.4402 9.27022 24.5499 9.01941 24.588C8.76859 24.6261 8.51225 24.5909 8.28049 24.4866C8.04873 24.3822 7.85117 24.2131 7.71099 23.9991C7.57082 23.785 7.49386 23.5349 7.48914 23.278V20.25C6.7821 20.25 6.10402 19.9655 5.60406 19.4592C5.10411 18.9528 4.82324 18.2661 4.82324 17.55V8.1C4.82324 7.38391 5.10411 6.69716 5.60406 6.19081C6.10402 5.68446 6.7821 5.4 7.48914 5.4H22.1516C22.8586 5.4 23.5367 5.68446 24.0366 6.19081C24.5366 6.69716 24.8175 7.38391 24.8175 8.1V17.55C24.8175 18.2661 24.5366 18.9528 24.0366 19.4592C23.5367 19.9655 22.8586 20.25 22.1516 20.25H15.4908L9.6965 24.2716ZM26.1504 13.5229C26.1462 13.689 26.1462 13.8551 26.1504 14.0211V13.5216C26.1571 13.3771 26.1584 11.5681 26.1557 8.09595C26.1547 7.02252 25.7329 5.99343 24.9831 5.23478C24.2333 4.47614 23.2168 4.05 22.1569 4.05H11.488V2.7C11.488 1.98392 11.7688 1.29716 12.2688 0.790812C12.7688 0.284463 13.4468 0 14.1539 0L28.8163 0C29.5233 0 30.2014 0.284463 30.7014 0.790812C31.2013 1.29716 31.4822 1.98392 31.4822 2.7V12.15C31.4822 12.8661 31.2013 13.5528 30.7014 14.0592C30.2014 14.5655 29.5233 14.85 28.8163 14.85V17.878C28.8116 18.1349 28.7346 18.385 28.5944 18.5991C28.4543 18.8131 28.2567 18.9822 28.0249 19.0866C27.7932 19.1909 27.5368 19.2261 27.286 19.188C27.0352 19.1499 26.8003 19.0402 26.6089 18.8716L26.1504 18.553V13.5229Z"/></g><defs><filter id="filter0_d_42_49" width="34.659" height="32.603" x=".823" y="0" color-interpolation-filters="sRGB" filterUnits="userSpaceOnUse"><feFlood flood-opacity="0" result="BackgroundImageFix"/><feColorMatrix in="SourceAlpha" result="hardAlpha" type="matrix" values="0 0 0 0 0 0 0 0 0 0 0 0 0 0 0 0 0 0 127 0"/><feOffset dy="4"/><feGaussianBlur stdDeviation="2"/><feComposite in2="hardAlpha" operator="out"/><feColorMatrix type="matrix" values="0 0 0 0 0 0 0 0 0 0 0 0 0 0 0 0 0 0 0.5 0"/><feBlend in2="BackgroundImageFix" mode="normal" result="effect1_dropShadow_42_49"/><feBlend in="SourceGraphic" in2="effect1_dropShadow_42_49" mode="normal" result="shape"/></filter></defs></svg>