<svg xmlns="http://www.w3.org/2000/svg" width="35" height="33" fill="none" viewBox="0 0 35 33"><g filter="url(#filter0_d_45_245)"><path fill="#000" d="M9.09445 24.2716C8.90306 24.4402 8.66817 24.5499 8.41736 24.588C8.16654 24.6261 7.9102 24.5909 7.67844 24.4866C7.44668 24.3822 7.24912 24.2131 7.10894 23.9991C6.96877 23.785 6.89181 23.5349 6.88709 23.278V20.25C6.18005 20.25 5.50197 19.9655 5.00201 19.4592C4.50206 18.9528 4.22119 18.2661 4.22119 17.55V8.1C4.22119 7.38391 4.50206 6.69716 5.00201 6.19081C5.50197 5.68446 6.18005 5.4 6.88709 5.4H21.5495C22.2565 5.4 22.9346 5.68446 23.4346 6.19081C23.9345 6.69716 24.2154 7.38391 24.2154 8.1V17.55C24.2154 18.2661 23.9345 18.9528 23.4346 19.4592C22.9346 19.9655 22.2565 20.25 21.5495 20.25H14.8888L9.09445 24.2716ZM25.5483 13.5229C25.5441 13.689 25.5441 13.8551 25.5483 14.0211V13.5216C25.555 13.3771 25.5563 11.5681 25.5537 8.09595C25.5526 7.02252 25.1308 5.99343 24.381 5.23478C23.6312 4.47614 22.6147 4.05 21.5548 4.05H10.8859V2.7C10.8859 1.98392 11.1668 1.29716 11.6668 0.790812C12.1667 0.284463 12.8448 0 13.5518 0L28.2142 0C28.9213 0 29.5994 0.284463 30.0993 0.790812C30.5993 1.29716 30.8801 1.98392 30.8801 2.7V12.15C30.8801 12.8661 30.5993 13.5528 30.0993 14.0592C29.5994 14.5655 28.9213 14.85 28.2142 14.85V17.878C28.2095 18.1349 28.1326 18.385 27.9924 18.5991C27.8522 18.8131 27.6546 18.9822 27.4229 19.0866C27.1911 19.1909 26.9348 19.2261 26.684 19.188C26.4332 19.1499 26.1983 19.0402 26.0069 18.8716L25.5483 18.553V13.5229Z"/></g><defs><filter id="filter0_d_45_245" width="34.659" height="32.603" x=".221" y="0" color-interpolation-filters="sRGB" filterUnits="userSpaceOnUse"><feFlood flood-opacity="0" result="BackgroundImageFix"/><feColorMatrix in="SourceAlpha" result="hardAlpha" type="matrix" values="0 0 0 0 0 0 0 0 0 0 0 0 0 0 0 0 0 0 127 0"/><feOffset dy="4"/><feGaussianBlur stdDeviation="2"/><feComposite in2="hardAlpha" operator="out"/><feColorMatrix type="matrix" values="0 0 0 0 0 0 0 0 0 0 0 0 0 0 0 0 0 0 0.25 0"/><feBlend in2="BackgroundImageFix" mode="normal" result="effect1_dropShadow_45_245"/><feBlend in="SourceGraphic" in2="effect1_dropShadow_45_245" mode="normal" result="shape"/></filter></defs></svg>