<svg width="15" height="39" viewBox="0 0 15 39" fill="none" xmlns="http://www.w3.org/2000/svg">
<g filter="url(#filter0_d_150_12)">
<path d="M11 28.8333C11 29.7616 10.6313 30.6518 9.97487 31.3082C9.3185 31.9646 8.42826 32.3333 7.5 32.3333C6.57174 32.3333 5.6815 31.9646 5.02513 31.3082C4.36875 30.6518 4 29.7616 4 28.8333C4 27.9051 4.36875 27.0148 5.02513 26.3585C5.6815 25.7021 6.57174 25.3333 7.5 25.3333C8.42826 25.3333 9.3185 25.7021 9.97487 26.3585C10.6313 27.0148 11 27.9051 11 28.8333ZM11 17.1667C11 18.0949 10.6313 18.9852 9.97487 19.6415C9.3185 20.2979 8.42826 20.6667 7.5 20.6667C6.57174 20.6667 5.6815 20.2979 5.02513 19.6415C4.36875 18.9852 4 18.0949 4 17.1667C4 16.2384 4.36875 15.3482 5.02513 14.6918C5.6815 14.0354 6.57174 13.6667 7.5 13.6667C8.42826 13.6667 9.3185 14.0354 9.97487 14.6918C10.6313 15.3482 11 16.2384 11 17.1667ZM11 5.5C11 6.42826 10.6313 7.3185 9.97487 7.97487C9.3185 8.63125 8.42826 9 7.5 9C6.57174 9 5.6815 8.63125 5.02513 7.97487C4.36875 7.3185 4 6.42826 4 5.5C4 4.57174 4.36875 3.6815 5.02513 3.02513C5.6815 2.36875 6.57174 2 7.5 2C8.42826 2 9.3185 2.36875 9.97487 3.02513C10.6313 3.6815 11 4.57174 11 5.5Z" fill="#525252"/>
</g>
<defs>
<filter id="filter0_d_150_12" x="0" y="0" width="15" height="38.3333" filterUnits="userSpaceOnUse" color-interpolation-filters="sRGB">
<feFlood flood-opacity="0" result="BackgroundImageFix"/>
<feColorMatrix in="SourceAlpha" type="matrix" values="0 0 0 0 0 0 0 0 0 0 0 0 0 0 0 0 0 0 127 0" result="hardAlpha"/>
<feOffset dy="2"/>
<feGaussianBlur stdDeviation="2"/>
<feComposite in2="hardAlpha" operator="out"/>
<feColorMatrix type="matrix" values="0 0 0 0 0 0 0 0 0 0 0 0 0 0 0 0 0 0 0.25 0"/>
<feBlend mode="normal" in2="BackgroundImageFix" result="effect1_dropShadow_150_12"/>
<feBlend mode="normal" in="SourceGraphic" in2="effect1_dropShadow_150_12" result="shape"/>
</filter>
</defs>
</svg>
