<svg width="26" height="26" viewBox="0 0 26 26" fill="none" xmlns="http://www.w3.org/2000/svg">
<g filter="url(#filter0_d_247_21)">
<path d="M5.9799 0.900024H19.9299C20.5599 0.900024 21.0999 1.44002 21.0999 1.98003V12.33C21.0999 12.96 20.5599 13.41 20.0199 13.41H5.9799C5.4399 13.5 4.8999 12.96 4.8999 12.42V1.98003C4.8999 1.44002 5.4399 0.900024 5.9799 0.900024ZM19.2999 11.7V2.70003H6.6999V11.7H19.2999ZM15.6999 8.10003C15.6999 8.10003 15.6999 3.60003 18.3999 3.60003V9.90003C18.3999 10.44 18.0399 10.8 17.4999 10.8H8.49989C7.95989 10.8 7.59989 10.44 7.59989 9.90003V6.30003C9.39989 6.30003 10.2999 9.90003 10.2999 9.90003C10.2999 9.90003 11.1999 6.30003 12.9999 6.30003C14.7999 6.30003 15.6999 8.10003 15.6999 8.10003ZM7.59989 15.3H18.3999V17.1H7.59989V15.3Z" fill="black"/>
</g>
<defs>
<filter id="filter0_d_247_21" x="0.899902" y="0.900024" width="24.1997" height="24.2" filterUnits="userSpaceOnUse" color-interpolation-filters="sRGB">
<feFlood flood-opacity="0" result="BackgroundImageFix"/>
<feColorMatrix in="SourceAlpha" type="matrix" values="0 0 0 0 0 0 0 0 0 0 0 0 0 0 0 0 0 0 127 0" result="hardAlpha"/>
<feOffset dy="4"/>
<feGaussianBlur stdDeviation="2"/>
<feComposite in2="hardAlpha" operator="out"/>
<feColorMatrix type="matrix" values="0 0 0 0 0 0 0 0 0 0 0 0 0 0 0 0 0 0 0.25 0"/>
<feBlend mode="normal" in2="BackgroundImageFix" result="effect1_dropShadow_247_21"/>
<feBlend mode="normal" in="SourceGraphic" in2="effect1_dropShadow_247_21" result="shape"/>
</filter>
</defs>
</svg>
