<svg width="18" height="15" viewBox="0 0 18 15" fill="none" xmlns="http://www.w3.org/2000/svg">
<path d="M15.9259 2.7037H13.25L12.6125 0.917129C12.5685 0.794879 12.4877 0.689207 12.3814 0.614548C12.275 0.53989 12.1482 0.499885 12.0183 0.5H5.98171C5.71609 0.5 5.47801 0.667245 5.38947 0.917129L4.75 2.7037H2.07407C1.2044 2.7037 0.5 3.40809 0.5 4.27777V13.25C0.5 14.1196 1.2044 14.824 2.07407 14.824H15.9259C16.7956 14.824 17.5 14.1196 17.5 13.25V4.27777C17.5 3.40809 16.7956 2.7037 15.9259 2.7037ZM16.0833 13.25C16.0833 13.3365 16.0125 13.4074 15.9259 13.4074H2.07407C1.9875 13.4074 1.91667 13.3365 1.91667 13.25V4.27777C1.91667 4.19119 1.9875 4.12036 2.07407 4.12036H5.74757L6.08403 3.17985L6.53461 1.91666H11.4634L11.914 3.17985L12.2505 4.12036H15.9259C16.0125 4.12036 16.0833 4.19119 16.0833 4.27777V13.25ZM9 5.37962C7.26065 5.37962 5.85185 6.78841 5.85185 8.52776C5.85185 10.2671 7.26065 11.6759 9 11.6759C10.7394 11.6759 12.1481 10.2671 12.1481 8.52776C12.1481 6.78841 10.7394 5.37962 9 5.37962ZM9 10.4166C7.95718 10.4166 7.11111 9.57058 7.11111 8.52776C7.11111 7.48494 7.95718 6.63887 9 6.63887C10.0428 6.63887 10.8889 7.48494 10.8889 8.52776C10.8889 9.57058 10.0428 10.4166 9 10.4166Z" fill="#262626" fill-opacity="0.87"/>
</svg>
