<svg xmlns="http://www.w3.org/2000/svg" width="46" height="44" fill="none" viewBox="0 0 46 44"><g filter="url(#filter0_d_126_122)"><path fill="#fff" d="M40.4308 5.58296L23.7321 0.103041C23.3025 -0.0343471 22.8398 -0.0343471 22.4102 0.103041L5.7463 5.56584H5.71151L5.62453 5.60009L5.52017 5.65146L5.39841 5.70283L5.32883 5.73708L5.22446 5.80558L5.17228 5.83983L5.06791 5.90833C5.06791 5.91742 5.06425 5.92613 5.05772 5.93255C5.0512 5.93897 5.04235 5.94258 5.03312 5.94258L4.91136 6.04533C4.91136 6.04987 4.90953 6.05423 4.90627 6.05744C4.90301 6.06065 4.89858 6.06245 4.89397 6.06245L4.77221 6.19945L4.73742 6.25083C4.71925 6.26231 4.70369 6.27736 4.69172 6.29504C4.67975 6.31272 4.67162 6.33265 4.66784 6.35358L4.61566 6.40495L4.56347 6.49057C4.54608 6.52482 4.52868 6.54195 4.52868 6.55907L4.4765 6.66182L4.44171 6.73032L4.38953 6.88444C4.37775 6.90539 4.37175 6.929 4.37213 6.95294C4.3528 6.99032 4.34099 7.03102 4.33735 7.07281C4.33735 7.08994 4.31995 7.12419 4.31995 7.14131C4.31995 7.15844 4.30256 7.22694 4.30256 7.26119V7.32969C4.28652 7.39697 4.28066 7.46621 4.28516 7.53518V21.235C4.28516 21.78 4.50508 22.3027 4.89653 22.6881C5.28798 23.0734 5.8189 23.29 6.3725 23.29C6.92609 23.29 7.45701 23.0734 7.84846 22.6881C8.23991 22.3027 8.45983 21.78 8.45983 21.235V10.3779L12.5823 11.7479C11.3096 14.1482 10.9276 16.9106 11.5024 19.5586C12.0772 22.2065 13.5726 24.574 15.7307 26.2525C12.7779 27.6049 10.2706 29.747 8.49462 32.4346C8.34385 32.6606 8.23979 32.9136 8.18835 33.1792C8.13692 33.4448 8.13913 33.7178 8.19485 33.9826C8.25058 34.2473 8.35873 34.4987 8.51313 34.7223C8.66753 34.9459 8.86516 35.1374 9.09473 35.2858C9.32429 35.4343 9.58131 35.5367 9.8511 35.5874C10.1209 35.638 10.3982 35.6358 10.6671 35.581C10.936 35.5261 11.1914 35.4196 11.4185 35.2676C11.6456 35.1156 11.8401 34.9211 11.9909 34.695C13.1886 32.875 14.8299 31.3789 16.7652 30.343C18.7005 29.3072 20.8683 28.7645 23.0712 28.7645C25.274 28.7645 27.4418 29.3072 29.3771 30.343C31.3124 31.3789 32.9537 32.875 34.1514 34.695C34.3439 34.98 34.6051 35.2136 34.9117 35.375C35.2182 35.5364 35.5606 35.6205 35.9083 35.6198C36.309 35.6204 36.7016 35.5075 37.0389 35.2944C37.5035 34.9936 37.8284 34.524 37.9425 33.9881C38.0565 33.4523 37.9506 32.8937 37.6477 32.4346C35.8717 29.747 33.3644 27.6049 30.4116 26.2525C32.5697 24.574 34.0652 22.2065 34.6399 19.5586C35.2147 16.9106 34.8328 14.1482 33.56 11.7479L40.4308 9.4874C40.8484 9.35227 41.212 9.09079 41.4698 8.74024C41.7276 8.38968 41.8664 7.96796 41.8664 7.53518C41.8664 7.10241 41.7276 6.68068 41.4698 6.33013C41.212 5.97958 40.8484 5.71809 40.4308 5.58296ZM23.0712 4.21298L33.1773 7.53518L29.5593 8.71679L23.0712 10.8574L16.583 8.71679L12.965 7.53518L23.0712 4.21298ZM30.7247 17.125C30.7235 18.2945 30.4458 19.4476 29.9137 20.4931C29.3815 21.5386 28.6094 22.4479 27.6586 23.1488C26.7078 23.8498 25.6043 24.3232 24.4354 24.5317C23.2666 24.7401 22.0645 24.6779 20.9243 24.3498C19.7842 24.0218 18.7372 23.437 17.8663 22.6417C16.9954 21.8464 16.3245 20.8625 15.9067 19.7678C15.4889 18.6731 15.3356 17.4976 15.459 16.3345C15.5825 15.1714 15.9792 14.0525 16.6178 13.0665L22.4102 14.9673C22.8398 15.1047 23.3025 15.1047 23.7321 14.9673L29.5245 13.0665C30.3124 14.2777 30.7291 15.6867 30.7247 17.125Z"/></g><defs><filter id="filter0_d_126_122" width="45.583" height="43.624" x=".284" y="0" color-interpolation-filters="sRGB" filterUnits="userSpaceOnUse"><feFlood flood-opacity="0" result="BackgroundImageFix"/><feColorMatrix in="SourceAlpha" result="hardAlpha" type="matrix" values="0 0 0 0 0 0 0 0 0 0 0 0 0 0 0 0 0 0 127 0"/><feOffset dy="4"/><feGaussianBlur stdDeviation="2"/><feComposite in2="hardAlpha" operator="out"/><feColorMatrix type="matrix" values="0 0 0 0 0 0 0 0 0 0 0 0 0 0 0 0 0 0 0.5 0"/><feBlend in2="BackgroundImageFix" mode="normal" result="effect1_dropShadow_126_122"/><feBlend in="SourceGraphic" in2="effect1_dropShadow_126_122" mode="normal" result="shape"/></filter></defs></svg>