<svg xmlns="http://www.w3.org/2000/svg" width="46" height="44" fill="none" viewBox="0 0 46 44"><g filter="url(#filter0_d_145_69)"><path fill="#000" d="M40.4308 7.58296L23.7321 2.10304C23.3025 1.96565 22.8398 1.96565 22.4102 2.10304L5.7463 7.56584H5.71151L5.62453 7.60009L5.52017 7.65146L5.39841 7.70283L5.32883 7.73708L5.22446 7.80558L5.17228 7.83983L5.06791 7.90833C5.06791 7.91742 5.06425 7.92613 5.05772 7.93255C5.0512 7.93897 5.04235 7.94258 5.03312 7.94258L4.91136 8.04533C4.91136 8.04987 4.90953 8.05423 4.90627 8.05744C4.90301 8.06065 4.89858 8.06245 4.89397 8.06245L4.77221 8.19945L4.73742 8.25083C4.71925 8.26231 4.70369 8.27736 4.69172 8.29504C4.67975 8.31272 4.67162 8.33265 4.66784 8.35358L4.61566 8.40495L4.56347 8.49057C4.54608 8.52482 4.52868 8.54195 4.52868 8.55907L4.4765 8.66182L4.44171 8.73032L4.38953 8.88444C4.37775 8.90539 4.37175 8.929 4.37213 8.95294C4.3528 8.99032 4.34099 9.03102 4.33735 9.07281C4.33735 9.08994 4.31995 9.12419 4.31995 9.14131C4.31995 9.15844 4.30256 9.22694 4.30256 9.26119V9.32969C4.28652 9.39697 4.28066 9.46621 4.28516 9.53518V23.235C4.28516 23.78 4.50508 24.3027 4.89653 24.6881C5.28798 25.0734 5.8189 25.29 6.3725 25.29C6.92609 25.29 7.45701 25.0734 7.84846 24.6881C8.23991 24.3027 8.45983 23.78 8.45983 23.235V12.3779L12.5823 13.7479C11.3096 16.1482 10.9276 18.9106 11.5024 21.5586C12.0772 24.2065 13.5726 26.574 15.7307 28.2525C12.7779 29.6049 10.2706 31.747 8.49462 34.4346C8.34385 34.6606 8.23979 34.9136 8.18835 35.1792C8.13692 35.4448 8.13913 35.7178 8.19485 35.9826C8.25058 36.2473 8.35873 36.4987 8.51313 36.7223C8.66753 36.9459 8.86516 37.1374 9.09473 37.2858C9.32429 37.4343 9.58131 37.5367 9.8511 37.5874C10.1209 37.638 10.3982 37.6358 10.6671 37.581C10.936 37.5261 11.1914 37.4196 11.4185 37.2676C11.6456 37.1156 11.8401 36.9211 11.9909 36.695C13.1886 34.875 14.8299 33.3789 16.7652 32.343C18.7005 31.3072 20.8683 30.7645 23.0712 30.7645C25.274 30.7645 27.4418 31.3072 29.3771 32.343C31.3124 33.3789 32.9537 34.875 34.1514 36.695C34.3439 36.98 34.6051 37.2136 34.9117 37.375C35.2182 37.5364 35.5606 37.6205 35.9083 37.6198C36.309 37.6204 36.7016 37.5075 37.0389 37.2944C37.5035 36.9936 37.8284 36.524 37.9425 35.9881C38.0565 35.4523 37.9506 34.8937 37.6477 34.4346C35.8717 31.747 33.3644 29.6049 30.4116 28.2525C32.5697 26.574 34.0652 24.2065 34.6399 21.5586C35.2147 18.9106 34.8328 16.1482 33.56 13.7479L40.4308 11.4874C40.8484 11.3523 41.212 11.0908 41.4698 10.7402C41.7276 10.3897 41.8664 9.96796 41.8664 9.53518C41.8664 9.10241 41.7276 8.68068 41.4698 8.33013C41.212 7.97958 40.8484 7.71809 40.4308 7.58296ZM23.0712 6.21298L33.1773 9.53518L29.5593 10.7168L23.0712 12.8574L16.583 10.7168L12.965 9.53518L23.0712 6.21298ZM30.7247 19.125C30.7235 20.2945 30.4458 21.4476 29.9137 22.4931C29.3815 23.5386 28.6094 24.4479 27.6586 25.1488C26.7078 25.8498 25.6043 26.3232 24.4354 26.5317C23.2666 26.7401 22.0645 26.6779 20.9243 26.3498C19.7842 26.0218 18.7372 25.437 17.8663 24.6417C16.9954 23.8464 16.3245 22.8625 15.9067 21.7678C15.4889 20.6731 15.3356 19.4976 15.459 18.3345C15.5825 17.1714 15.9792 16.0525 16.6178 15.0665L22.4102 16.9673C22.8398 17.1047 23.3025 17.1047 23.7321 16.9673L29.5245 15.0665C30.3124 16.2777 30.7291 17.6867 30.7247 19.125Z"/></g><defs><filter id="filter0_d_145_69" width="45.583" height="43.624" x=".284" y="0" color-interpolation-filters="sRGB" filterUnits="userSpaceOnUse"><feFlood flood-opacity="0" result="BackgroundImageFix"/><feColorMatrix in="SourceAlpha" result="hardAlpha" type="matrix" values="0 0 0 0 0 0 0 0 0 0 0 0 0 0 0 0 0 0 127 0"/><feOffset dy="2"/><feGaussianBlur stdDeviation="2"/><feComposite in2="hardAlpha" operator="out"/><feColorMatrix type="matrix" values="0 0 0 0 0 0 0 0 0 0 0 0 0 0 0 0 0 0 0.25 0"/><feBlend in2="BackgroundImageFix" mode="normal" result="effect1_dropShadow_145_69"/><feBlend in="SourceGraphic" in2="effect1_dropShadow_145_69" mode="normal" result="shape"/></filter></defs></svg>