<svg width="17" height="17" viewBox="0 0 17 17" fill="none" xmlns="http://www.w3.org/2000/svg">
<path d="M8.50028 6.70272L2.97312 1.17346C2.97309 1.17343 2.97306 1.1734 2.97303 1.17337C2.85496 1.05503 2.71472 0.96114 2.56032 0.897071C2.40588 0.832986 2.24031 0.8 2.07311 0.8C1.9059 0.8 1.74034 0.832986 1.5859 0.897071C1.43154 0.961123 1.29133 1.05498 1.17328 1.17328C1.05498 1.29133 0.961123 1.43154 0.897071 1.5859C0.832986 1.74034 0.8 1.9059 0.8 2.07311C0.8 2.24031 0.832986 2.40588 0.897071 2.56032C0.96114 2.71472 1.05503 2.85496 1.17337 2.97303C1.1734 2.97306 1.17343 2.97309 1.17346 2.97312L6.70272 8.50028L1.17331 14.0276L1.17328 14.0276C1.05512 14.1458 0.961379 14.2861 0.897428 14.4405C0.833476 14.5949 0.800561 14.7603 0.800561 14.9275C0.800561 15.0946 0.833476 15.26 0.897428 15.4144C0.961379 15.5688 1.05512 15.7091 1.17328 15.8273C1.29145 15.9454 1.43173 16.0392 1.58613 16.1031C1.74052 16.1671 1.906 16.2 2.07311 16.2C2.24022 16.2 2.4057 16.1671 2.56009 16.1031C2.71449 16.0392 2.85477 15.9454 2.97294 15.8273L2.97296 15.8273L8.50028 10.2978L14.0276 15.8273L14.0276 15.8273C14.1458 15.9454 14.2861 16.0392 14.4405 16.1031C14.5949 16.1671 14.7603 16.2 14.9275 16.2C15.0946 16.2 15.26 16.1671 15.4144 16.1031C15.5688 16.0392 15.7091 15.9454 15.8273 15.8273C15.9454 15.7091 16.0392 15.5688 16.1031 15.4144C16.1671 15.26 16.2 15.0946 16.2 14.9275C16.2 14.7603 16.1671 14.5949 16.1031 14.4405C16.0392 14.2861 15.9454 14.1458 15.8273 14.0276L15.8273 14.0276L10.2978 8.50028L15.8273 2.97296L15.8273 2.97294C15.9454 2.85477 16.0392 2.71449 16.1031 2.56009C16.1671 2.4057 16.2 2.24022 16.2 2.07311C16.2 1.906 16.1671 1.74052 16.1031 1.58613C16.0392 1.43173 15.9454 1.29145 15.8273 1.17328C15.7091 1.05512 15.5688 0.961379 15.4144 0.897428C15.26 0.833476 15.0946 0.800561 14.9275 0.800561C14.7603 0.800561 14.5949 0.833476 14.4405 0.897428C14.2861 0.961379 14.1458 1.05512 14.0276 1.17328L14.0276 1.17331L8.50028 6.70272Z" fill="#3E3E3E" stroke="#3E3E3E" stroke-width="0.4"/>
</svg>
