<svg width="21" height="26" viewBox="0 0 21 26" fill="none" xmlns="http://www.w3.org/2000/svg">
<path d="M6.9375 18.8125H10.5M1 3.375V22.375C1 23.0049 1.25022 23.609 1.69562 24.0544C2.14102 24.4998 2.74511 24.75 3.375 24.75H17.625C18.2549 24.75 18.859 24.4998 19.3044 24.0544C19.7498 23.609 20 23.0049 20 22.375V8.53113C20 8.21473 19.9367 7.90153 19.8139 7.60992C19.6912 7.3183 19.5114 7.05416 19.2851 6.833L14.0126 1.67687C13.5689 1.24303 12.9731 1.00008 12.3525 1H3.375C2.74511 1 2.14102 1.25022 1.69562 1.69562C1.25022 2.14102 1 2.74511 1 3.375V3.375ZM6.9375 14.0625H14.0625H6.9375Z" stroke="black" stroke-width="2" stroke-linecap="round" stroke-linejoin="round"/>
<path d="M12.875 1V5.75C12.875 6.37989 13.1252 6.98398 13.5706 7.42938C14.016 7.87478 14.6201 8.125 15.25 8.125H20" stroke="black" stroke-width="2" stroke-linejoin="round"/>
</svg>
