<svg width="27" height="29" viewBox="0 0 27 29" fill="none" xmlns="http://www.w3.org/2000/svg">
<path d="M8.1 14.5C10.7114 14.5 12.825 11.2569 12.825 7.25C12.825 3.24308 10.7114 0 8.1 0C5.48859 0 3.375 3.24308 3.375 7.25C3.375 11.2569 5.48859 14.5 8.1 14.5ZM11.34 16.5714H10.9898C10.1123 17.2187 9.13781 17.6071 8.1 17.6071C7.06219 17.6071 6.09188 17.2187 5.21016 16.5714H4.86C2.17687 16.5714 0 19.9116 0 24.0286V25.8929C0 27.6083 0.907031 29 2.025 29H14.175C15.293 29 16.2 27.6083 16.2 25.8929V24.0286C16.2 19.9116 14.0231 16.5714 11.34 16.5714ZM20.25 14.5C22.4859 14.5 24.3 11.7165 24.3 8.28571C24.3 4.85491 22.4859 2.07143 20.25 2.07143C18.0141 2.07143 16.2 4.85491 16.2 8.28571C16.2 11.7165 18.0141 14.5 20.25 14.5ZM22.275 16.5714H22.1147C21.5283 16.8821 20.9081 17.0893 20.25 17.0893C19.5919 17.0893 18.9717 16.8821 18.3853 16.5714H18.225C17.3644 16.5714 16.5712 16.9533 15.8752 17.5683C16.9045 19.2708 17.55 21.5299 17.55 24.0286V26.5143C17.55 26.6567 17.5289 26.7926 17.5247 26.9286H24.975C26.093 26.9286 27 25.5368 27 23.8214C27 19.8145 24.8864 16.5714 22.275 16.5714V16.5714Z" fill="black"/>
</svg>
