<svg width="19" height="13" viewBox="0 0 19 13" fill="none" xmlns="http://www.w3.org/2000/svg">
<path d="M5.4 6.30001C7.14093 6.30001 8.54999 4.89095 8.54999 3.15001C8.54999 1.40907 7.14093 0 5.4 0C3.65906 0 2.25 1.40907 2.25 3.15001C2.25 4.89095 3.65906 6.30001 5.4 6.30001ZM7.55999 7.20001H7.32656C6.74156 7.48126 6.09187 7.65001 5.4 7.65001C4.70812 7.65001 4.06125 7.48126 3.47343 7.20001H3.24C1.45125 7.20001 0 8.65127 0 10.44V11.25C0 11.9953 0.604687 12.6 1.35 12.6H9.44999C10.1953 12.6 10.8 11.9953 10.8 11.25V10.44C10.8 8.65127 9.34874 7.20001 7.55999 7.20001Z" fill="black"/>
<path d="M13.7164 6.30003C15.207 6.30003 16.4164 5.09065 16.4164 3.60003C16.4164 2.1094 15.207 0.900024 13.7164 0.900024C12.2257 0.900024 11.0164 2.1094 11.0164 3.60003C11.0164 5.09065 12.2257 6.30003 13.7164 6.30003ZM15.0664 7.20003H14.9595C14.5686 7.33503 14.1551 7.42503 13.7164 7.42503C13.2776 7.42503 12.8642 7.33503 12.4732 7.20003H12.3664C11.7926 7.20003 11.2639 7.36597 10.7998 7.63316C11.4861 8.37284 11.9164 9.35441 11.9164 10.44V11.52C11.9164 11.5819 11.9023 11.641 11.8995 11.7H16.8664C17.6117 11.7 18.2164 11.0953 18.2164 10.35C18.2164 8.60909 16.8073 7.20003 15.0664 7.20003V7.20003Z" fill="black"/>
</svg>
