<svg xmlns="http://www.w3.org/2000/svg" width="34" height="29" fill="none" viewBox="0 0 34 29"><path fill="#000" d="M28.475 0.00169988C29.2006 0.00169988 29.919 0.144609 30.5893 0.422266C31.2597 0.699923 31.8687 1.10689 32.3818 1.61994C32.8948 2.13298 33.3018 2.74205 33.5794 3.41238C33.8571 4.0827 34 4.80115 34 5.5267V23.3818C34 24.1074 33.8571 24.8258 33.5794 25.4961C33.3018 26.1665 32.8948 26.7755 32.3818 27.2886C31.8687 27.8016 31.2597 28.2086 30.5893 28.4862C29.919 28.7639 29.2006 28.9068 28.475 28.9068H5.525C4.05968 28.9068 2.65437 28.3247 1.61823 27.2886C0.582096 26.2524 0 24.8471 0 23.3818V5.525C0 4.05968 0.582096 2.65437 1.61823 1.61824C2.65437 0.582096 4.05968 0 5.525 0H28.475V0.00169988ZM28.475 2.5517H5.525C4.73598 2.5517 3.97928 2.86514 3.42136 3.42306C2.86344 3.98098 2.55 4.73768 2.55 5.5267V23.3818C2.55 25.024 3.8828 26.3568 5.525 26.3568H28.475C29.264 26.3568 30.0207 26.0434 30.5786 25.4854C31.1366 24.9275 31.45 24.1708 31.45 23.3818V5.525C31.45 4.73598 31.1366 3.97928 30.5786 3.42136C30.0207 2.86344 29.264 2.55 28.475 2.55V2.5517ZM10.2255 9.1324C11.2387 9.1324 11.9578 9.2718 12.7789 9.6662C12.9047 9.72659 13.0174 9.81117 13.1105 9.9151C13.2036 10.019 13.2753 10.1403 13.3216 10.2719C13.3678 10.4036 13.3877 10.5431 13.3801 10.6824C13.3724 10.8217 13.3374 10.9582 13.277 11.084C13.2166 11.2098 13.132 11.3225 13.0281 11.4156C12.9242 11.5087 12.8029 11.5804 12.6713 11.6267C12.5396 11.6729 12.4001 11.6928 12.2608 11.6852C12.1215 11.6775 11.985 11.6425 11.8592 11.5821C11.3492 11.3373 10.9412 11.2591 10.2255 11.2591C8.7516 11.2591 7.6687 12.6123 7.6687 14.4415C7.6687 16.2724 8.7533 17.6307 10.2255 17.6307C10.9531 17.6307 11.5702 17.3247 11.8915 16.779L11.9 16.7535V15.5057H11.2608C11.0064 15.5057 10.7605 15.4144 10.5677 15.2484C10.3749 15.0825 10.2481 14.8529 10.2102 14.6013L10.2 14.4449C10.2 13.9111 10.5927 13.4691 11.1061 13.3926L11.2625 13.3824H12.9659C13.4997 13.3824 13.94 13.7734 14.0165 14.2868L14.0284 14.4449L14.025 17.0748L14.0148 17.17L13.9791 17.323L13.9451 17.4165C13.3042 18.9295 11.8354 19.7557 10.2255 19.7557C7.4613 19.7557 5.5437 17.3536 5.5437 14.4415C5.5437 11.5294 7.4596 9.1324 10.2255 9.1324ZM18.0693 9.3398C18.6031 9.3398 19.0451 9.7342 19.1199 10.2459L19.1318 10.4023V18.4994C19.1313 18.7672 19.0296 19.025 18.8471 19.2211C18.6646 19.4172 18.4148 19.5371 18.1477 19.5568C17.8806 19.5766 17.6159 19.4948 17.4065 19.3277C17.1972 19.1606 17.0587 18.9207 17.0187 18.6558L17.0068 18.4994V10.4023C17.0068 9.8158 17.4828 9.3398 18.0693 9.3398ZM23.1625 9.3398L26.5574 9.3517C26.8267 9.35101 27.0862 9.45259 27.2835 9.63591C27.4807 9.81923 27.601 10.0706 27.62 10.3392C27.639 10.6078 27.5553 10.8737 27.3858 11.0829C27.2163 11.2922 26.9737 11.4293 26.707 11.4665L26.5506 11.4767L24.2199 11.4682V14.45H26.129C26.6628 14.45 27.1048 14.8444 27.1796 15.3578L27.1915 15.5142C27.1914 15.7688 27.0999 16.015 26.9336 16.2078C26.7673 16.4006 26.5373 16.5273 26.2854 16.5648L26.129 16.5767L24.2199 16.575V18.4705C24.2203 18.7252 24.1292 18.9715 23.9632 19.1647C23.7972 19.3578 23.5673 19.4849 23.3155 19.5228L23.1591 19.533C22.9044 19.5334 22.6581 19.4423 22.4649 19.2763C22.2718 19.1103 22.1447 18.8804 22.1068 18.6286L22.0966 18.4705V10.3989C22.0976 10.1446 22.1897 9.89907 22.3563 9.70692C22.5228 9.51476 22.7528 9.38873 23.0044 9.3517L23.1625 9.3398Z"/></svg>