<svg width="38" height="38" viewBox="0 0 38 38" fill="none" xmlns="http://www.w3.org/2000/svg">
<path d="M27.3208 6.26667L31.7333 10.6771L27.3208 6.26667ZM30.1583 2.38126L18.2271 14.3125C17.6106 14.9281 17.1902 15.7125 17.0187 16.5667L15.9167 22.0833L21.4333 20.9792C22.2875 20.8083 23.0708 20.3896 23.6875 19.7729L35.6188 7.84167C35.9773 7.48314 36.2617 7.05749 36.4557 6.58904C36.6498 6.12059 36.7496 5.61851 36.7496 5.11146C36.7496 4.60442 36.6498 4.10234 36.4557 3.63389C36.2617 3.16544 35.9773 2.73979 35.6188 2.38126C35.2602 2.02272 34.8346 1.73831 34.3661 1.54427C33.8977 1.35024 33.3956 1.25037 32.8885 1.25037C32.3815 1.25037 31.8794 1.35024 31.411 1.54427C30.9425 1.73831 30.5169 2.02272 30.1583 2.38126V2.38126Z" stroke="black" stroke-width="2" stroke-linecap="round" stroke-linejoin="round"/>
<path d="M32.5833 26.25V32.5C32.5833 33.605 32.1443 34.6648 31.3629 35.4462C30.5815 36.2276 29.5217 36.6666 28.4167 36.6666H5.49999C4.39493 36.6666 3.33512 36.2276 2.55372 35.4462C1.77231 34.6648 1.33333 33.605 1.33333 32.5V9.58329C1.33333 8.47822 1.77231 7.41842 2.55372 6.63701C3.33512 5.85561 4.39493 5.41663 5.49999 5.41663H11.75" stroke="black" stroke-width="2" stroke-linecap="round" stroke-linejoin="round"/>
</svg>
