<svg width="19" height="19" viewBox="0 0 19 19" fill="none" xmlns="http://www.w3.org/2000/svg">
<path d="M13.474 3.40787L15.592 5.52491L13.474 3.40787ZM14.836 1.54284L9.10901 7.26994C8.81309 7.56544 8.61128 7.94193 8.529 8.35196L8 11L10.648 10.47C11.058 10.388 11.434 10.187 11.73 9.89098L17.457 4.16388C17.6291 3.99178 17.7657 3.78747 17.8588 3.56261C17.9519 3.33775 17.9999 3.09675 17.9999 2.85336C17.9999 2.60997 17.9519 2.36897 17.8588 2.14411C17.7657 1.91925 17.6291 1.71494 17.457 1.54284C17.285 1.37074 17.0806 1.23422 16.8558 1.14108C16.6309 1.04794 16.3899 1 16.1465 1C15.9032 1 15.6622 1.04794 15.4373 1.14108C15.2124 1.23422 15.0081 1.37074 14.836 1.54284V1.54284Z" stroke="black" stroke-width="2" stroke-linecap="round" stroke-linejoin="round"/>
<path d="M16 12.9998V15.9998C16 16.5302 15.7893 17.0389 15.4142 17.414C15.0391 17.7891 14.5304 17.9998 14 17.9998H3C2.46957 17.9998 1.96086 17.7891 1.58579 17.414C1.21071 17.0389 1 16.5302 1 15.9998V4.99966C1 4.46922 1.21071 3.9605 1.58579 3.58543C1.96086 3.21035 2.46957 2.99963 3 2.99963H6" stroke="black" stroke-width="2" stroke-linecap="round" stroke-linejoin="round"/>
</svg>
