<svg width="47" height="26" viewBox="0 0 47 26" fill="none" xmlns="http://www.w3.org/2000/svg">
<g filter="url(#filter0_d_229_16)">
<path d="M23.2093 12.125C25.8186 12.125 28.1237 12.71 29.9966 13.475C31.7254 14.195 32.8139 15.815 32.8139 17.57V20H13.6046V17.585C13.6046 15.815 14.6932 14.195 16.422 13.49C18.2949 12.71 20.6 12.125 23.2093 12.125ZM10.4031 12.5C12.1639 12.5 13.6046 11.15 13.6046 9.50001C13.6046 7.85001 12.1639 6.50001 10.4031 6.50001C8.64224 6.50001 7.20154 7.85001 7.20154 9.50001C7.20154 11.15 8.64224 12.5 10.4031 12.5ZM12.212 14.15C11.6197 14.06 11.0274 14 10.4031 14C8.81833 14 7.3136 14.315 5.95294 14.87C5.373 15.1023 4.87869 15.4892 4.53148 15.9825C4.18426 16.4759 3.99944 17.054 3.99999 17.645V20H11.2035V17.585C11.2035 16.34 11.5717 15.17 12.212 14.15ZM36.0155 12.5C37.7763 12.5 39.217 11.15 39.217 9.50001C39.217 7.85001 37.7763 6.50001 36.0155 6.50001C34.2546 6.50001 32.8139 7.85001 32.8139 9.50001C32.8139 11.15 34.2546 12.5 36.0155 12.5ZM42.4186 17.645C42.4186 16.43 41.6502 15.35 40.4657 14.87C39.062 14.2961 37.547 13.9999 36.0155 14C35.3912 14 34.7989 14.06 34.2066 14.15C34.8469 15.17 35.2151 16.34 35.2151 17.585V20H42.4186V17.645ZM23.2093 2.00001C25.8666 2.00001 28.0116 4.01001 28.0116 6.50001C28.0116 8.99001 25.8666 11 23.2093 11C20.552 11 18.407 8.99001 18.407 6.50001C18.407 4.01001 20.552 2.00001 23.2093 2.00001Z" fill="white"/>
</g>
<defs>
<filter id="filter0_d_229_16" x="0" y="0" width="46.4187" height="26" filterUnits="userSpaceOnUse" color-interpolation-filters="sRGB">
<feFlood flood-opacity="0" result="BackgroundImageFix"/>
<feColorMatrix in="SourceAlpha" type="matrix" values="0 0 0 0 0 0 0 0 0 0 0 0 0 0 0 0 0 0 127 0" result="hardAlpha"/>
<feOffset dy="2"/>
<feGaussianBlur stdDeviation="2"/>
<feComposite in2="hardAlpha" operator="out"/>
<feColorMatrix type="matrix" values="0 0 0 0 0 0 0 0 0 0 0 0 0 0 0 0 0 0 0.25 0"/>
<feBlend mode="normal" in2="BackgroundImageFix" result="effect1_dropShadow_229_16"/>
<feBlend mode="normal" in="SourceGraphic" in2="effect1_dropShadow_229_16" result="shape"/>
</filter>
</defs>
</svg>
