<svg width="19" height="21" viewBox="0 0 19 21" fill="none" xmlns="http://www.w3.org/2000/svg">
<path d="M8.92725 10.0743C11.433 10.0743 13.4644 8.04293 13.4644 5.53714C13.4644 3.03135 11.433 1 8.92725 1C6.42147 1 4.39014 3.03135 4.39014 5.53714C4.39014 8.04293 6.42147 10.0743 8.92725 10.0743Z" stroke="black" stroke-width="2"/>
<path d="M13.4629 19.1484H2.81524C2.55787 19.1485 2.30345 19.0938 2.06883 18.988C1.83422 18.8822 1.62479 18.7278 1.45445 18.5348C1.2841 18.3419 1.15673 18.115 1.0808 17.8691C1.00486 17.6232 0.982094 17.3639 1.01401 17.1086L1.3679 14.2738C1.4502 13.6152 1.77026 13.0094 2.26791 12.5702C2.76555 12.1311 3.40649 11.8889 4.0702 11.8891H4.3887M15.2777 10.9817V16.4262M12.5555 13.7039H18" stroke="black" stroke-width="2" stroke-linecap="round" stroke-linejoin="round"/>
</svg>
