<svg xmlns="http://www.w3.org/2000/svg" width="47" height="27" fill="none" viewBox="0 0 47 27"><g filter="url(#filter0_d_150_40)"><path fill="#000" d="M23.286 13.1075C25.8952 13.1075 28.2003 13.6925 30.0732 14.4575C31.8021 15.1775 32.8906 16.7975 32.8906 18.5525V20.9825H13.6813V18.5675C13.6813 16.7975 14.7698 15.1775 16.4987 14.4725C18.3716 13.6925 20.6767 13.1075 23.286 13.1075ZM10.4798 13.4825C12.2406 13.4825 13.6813 12.1325 13.6813 10.4825C13.6813 8.83252 12.2406 7.48252 10.4798 7.48252C8.7189 7.48252 7.2782 8.83252 7.2782 10.4825C7.2782 12.1325 8.7189 13.4825 10.4798 13.4825ZM12.2886 15.1325C11.6963 15.0425 11.1041 14.9825 10.4798 14.9825C8.89499 14.9825 7.39026 15.2975 6.0296 15.8525C5.44966 16.0848 4.95535 16.4717 4.60814 16.965C4.26092 17.4584 4.0761 18.0365 4.07665 18.6275V20.9825H11.2801V18.5675C11.2801 17.3225 11.6483 16.1525 12.2886 15.1325ZM36.0922 13.4825C37.853 13.4825 39.2937 12.1325 39.2937 10.4825C39.2937 8.83252 37.853 7.48252 36.0922 7.48252C34.3313 7.48252 32.8906 8.83252 32.8906 10.4825C32.8906 12.1325 34.3313 13.4825 36.0922 13.4825ZM42.4953 18.6275C42.4953 17.4125 41.7269 16.3325 40.5423 15.8525C39.1386 15.2786 37.6236 14.9824 36.0922 14.9825C35.4679 14.9825 34.8756 15.0425 34.2833 15.1325C34.9236 16.1525 35.2918 17.3225 35.2918 18.5675V20.9825H42.4953V18.6275ZM23.286 2.98252C25.9432 2.98252 28.0883 4.99252 28.0883 7.48252C28.0883 9.97252 25.9432 11.9825 23.286 11.9825C20.6287 11.9825 18.4836 9.97252 18.4836 7.48252C18.4836 4.99252 20.6287 2.98252 23.286 2.98252Z"/></g><defs><filter id="filter0_d_150_40" width="46.419" height="26" x=".077" y=".983" color-interpolation-filters="sRGB" filterUnits="userSpaceOnUse"><feFlood flood-opacity="0" result="BackgroundImageFix"/><feColorMatrix in="SourceAlpha" result="hardAlpha" type="matrix" values="0 0 0 0 0 0 0 0 0 0 0 0 0 0 0 0 0 0 127 0"/><feOffset dy="2"/><feGaussianBlur stdDeviation="2"/><feComposite in2="hardAlpha" operator="out"/><feColorMatrix type="matrix" values="0 0 0 0 0 0 0 0 0 0 0 0 0 0 0 0 0 0 0.25 0"/><feBlend in2="BackgroundImageFix" mode="normal" result="effect1_dropShadow_150_40"/><feBlend in="SourceGraphic" in2="effect1_dropShadow_150_40" mode="normal" result="shape"/></filter></defs></svg>