<svg width="41" height="41" viewBox="0 0 41 41" fill="none" xmlns="http://www.w3.org/2000/svg">
<g filter="url(#filter0_d_145_74)">
<path d="M33.3219 19.5367L33.362 29.8557C33.362 30.0361 33.3505 30.2037 33.3333 30.3777V31.4219C33.3333 32.8463 32.3078 34 31.0417 34H30.125C30.062 34 29.999 33.942 29.9359 33.9936C29.8557 33.942 29.7755 34 29.6953 34H26.4583C25.1922 34 24.1667 32.8463 24.1667 31.4219V25.75C24.1667 24.6092 23.3474 23.6875 22.3333 23.6875H18.6667C17.6526 23.6875 16.8333 24.6092 16.8333 25.75V31.4219C16.8333 32.8463 15.8078 34 14.5417 34H11.3391C11.2531 34 11.1672 33.9936 11.0812 33.9871C11.0125 33.9936 10.9437 34 10.875 34H9.95833C8.69276 34 7.66667 32.8463 7.66667 31.4219V24.2031C7.66667 24.1451 7.66838 24.0807 7.67182 24.0227V19.5367H5.8362C4.80323 19.5367 4 18.6279 4 17.4678C4 16.8877 4.1721 16.3721 4.57349 15.9209L19.2625 1.51666C19.6635 1.06458 20.1219 1 20.5229 1C20.924 1 21.3823 1.12916 21.7318 1.45207L27.8333 7.49043V5.125C27.8333 3.98611 28.6526 3.0625 29.6667 3.0625H31.5C32.5141 3.0625 33.3333 3.98611 33.3333 5.125V12.9238L36.3583 15.9209C36.8167 16.3721 37.0516 16.8877 36.9885 17.4678C36.9885 18.6279 36.1292 19.5367 35.1552 19.5367H33.3219V19.5367Z" fill="black"/>
</g>
<defs>
<filter id="filter0_d_145_74" x="0" y="0" width="40.9985" height="41" filterUnits="userSpaceOnUse" color-interpolation-filters="sRGB">
<feFlood flood-opacity="0" result="BackgroundImageFix"/>
<feColorMatrix in="SourceAlpha" type="matrix" values="0 0 0 0 0 0 0 0 0 0 0 0 0 0 0 0 0 0 127 0" result="hardAlpha"/>
<feOffset dy="3"/>
<feGaussianBlur stdDeviation="2"/>
<feComposite in2="hardAlpha" operator="out"/>
<feColorMatrix type="matrix" values="0 0 0 0 0 0 0 0 0 0 0 0 0 0 0 0 0 0 0.25 0"/>
<feBlend mode="normal" in2="BackgroundImageFix" result="effect1_dropShadow_145_74"/>
<feBlend mode="normal" in="SourceGraphic" in2="effect1_dropShadow_145_74" result="shape"/>
</filter>
</defs>
</svg>
