<svg width="41" height="41" viewBox="0 0 41 41" fill="none" xmlns="http://www.w3.org/2000/svg">
<g filter="url(#filter0_d_145_23)">
<path d="M33.3219 18.5367L33.362 28.8557C33.362 29.0361 33.3505 29.2037 33.3333 29.3777V30.4219C33.3333 31.8463 32.3078 33 31.0417 33H30.125C30.062 33 29.999 32.942 29.9359 32.9936C29.8557 32.942 29.7755 33 29.6953 33H26.4583C25.1922 33 24.1667 31.8463 24.1667 30.4219V24.75C24.1667 23.6092 23.3474 22.6875 22.3333 22.6875H18.6667C17.6526 22.6875 16.8333 23.6092 16.8333 24.75V30.4219C16.8333 31.8463 15.8078 33 14.5417 33H11.3391C11.2531 33 11.1672 32.9936 11.0812 32.9871C11.0125 32.9936 10.9437 33 10.875 33H9.95833C8.69276 33 7.66667 31.8463 7.66667 30.4219V23.2031C7.66667 23.1451 7.66838 23.0807 7.67182 23.0227V18.5367H5.8362C4.80323 18.5367 4 17.6279 4 16.4678C4 15.8877 4.1721 15.3721 4.57349 14.9209L19.2625 0.516656C19.6635 0.064582 20.1219 0 20.5229 0C20.924 0 21.3823 0.129164 21.7318 0.452074L27.8333 6.49043V4.125C27.8333 2.98611 28.6526 2.0625 29.6667 2.0625H31.5C32.5141 2.0625 33.3333 2.98611 33.3333 4.125V11.9238L36.3583 14.9209C36.8167 15.3721 37.0516 15.8877 36.9885 16.4678C36.9885 17.6279 36.1292 18.5367 35.1552 18.5367H33.3219Z" fill="white"/>
</g>
<defs>
<filter id="filter0_d_145_23" x="0" y="0" width="40.9985" height="41" filterUnits="userSpaceOnUse" color-interpolation-filters="sRGB">
<feFlood flood-opacity="0" result="BackgroundImageFix"/>
<feColorMatrix in="SourceAlpha" type="matrix" values="0 0 0 0 0 0 0 0 0 0 0 0 0 0 0 0 0 0 127 0" result="hardAlpha"/>
<feOffset dy="4"/>
<feGaussianBlur stdDeviation="2"/>
<feComposite in2="hardAlpha" operator="out"/>
<feColorMatrix type="matrix" values="0 0 0 0 0 0 0 0 0 0 0 0 0 0 0 0 0 0 0.5 0"/>
<feBlend mode="normal" in2="BackgroundImageFix" result="effect1_dropShadow_145_23"/>
<feBlend mode="normal" in="SourceGraphic" in2="effect1_dropShadow_145_23" result="shape"/>
</filter>
</defs>
</svg>
