<svg width="27" height="27" viewBox="0 0 27 27" fill="none" xmlns="http://www.w3.org/2000/svg">
<path d="M1 5.99989C1 4.67383 1.52677 3.40209 2.46443 2.46443C3.40209 1.52677 4.67383 1 5.99989 1H20.9995C22.3256 1 23.5973 1.52677 24.535 2.46443C25.4727 3.40209 25.9994 4.67383 25.9994 5.99989V20.9995C25.9994 22.3256 25.4727 23.5973 24.535 24.535C23.5973 25.4727 22.3256 25.9994 20.9995 25.9994H5.99989C4.67383 25.9994 3.40209 25.4727 2.46443 24.535C1.52677 23.5973 1 22.3256 1 20.9995V5.99989Z" stroke="black" stroke-width="2" stroke-linecap="round" stroke-linejoin="round"/>
<path d="M9.12542 12.2497C10.8513 12.2497 12.2503 10.8506 12.2503 9.12478C12.2503 7.39893 10.8513 5.99985 9.12542 5.99985C7.39957 5.99985 6.00049 7.39893 6.00049 9.12478C6.00049 10.8506 7.39957 12.2497 9.12542 12.2497Z" stroke="black" stroke-width="2" stroke-linecap="round" stroke-linejoin="round"/>
<path d="M16.6577 14.2758L6.00049 25.9993H21.1664C22.4483 25.9993 23.6778 25.4901 24.5843 24.5836C25.4908 23.6771 26 22.4476 26 21.1657V20.9994C26 20.417 25.7813 20.1932 25.3875 19.762L20.3502 14.2683C20.1154 14.0122 19.8298 13.8079 19.5116 13.6683C19.1935 13.5288 18.8497 13.457 18.5023 13.4577C18.1549 13.4585 17.8114 13.5316 17.4938 13.6724C17.1762 13.8133 16.8915 14.0188 16.6577 14.2758V14.2758Z" stroke="black" stroke-width="2" stroke-linecap="round" stroke-linejoin="round"/>
</svg>
