<svg xmlns="http://www.w3.org/2000/svg" width="41" height="41" fill="none" viewBox="0 0 41 41"><g filter="url(#filter0_d_126_117)"><path fill="#fff" d="M20.52 0.333344C11.1852 0.333344 3.59082 7.81001 3.59082 17C3.59082 26.19 11.1852 33.6667 20.52 33.6667C29.8547 33.6667 37.4491 26.19 37.4491 17C37.4491 7.81001 29.8547 0.333344 20.52 0.333344ZM20.52 30.3333C13.0525 30.3333 6.97665 24.3517 6.97665 17C6.97665 9.64835 13.0525 3.66668 20.52 3.66668C27.9874 3.66668 34.0633 9.64835 34.0633 17C34.0633 24.3517 27.9874 30.3333 20.52 30.3333Z"/><path fill="#fff" d="M18.8945 15.1667H22.2804V25.1667H18.8945V15.1667ZM18.8945 8.5H22.2804V11.8333H18.8945V8.5Z"/></g><defs><filter id="filter0_d_126_117" width="39.858" height="40.333" x=".591" y=".333" color-interpolation-filters="sRGB" filterUnits="userSpaceOnUse"><feFlood flood-opacity="0" result="BackgroundImageFix"/><feColorMatrix in="SourceAlpha" result="hardAlpha" type="matrix" values="0 0 0 0 0 0 0 0 0 0 0 0 0 0 0 0 0 0 127 0"/><feOffset dy="4"/><feGaussianBlur stdDeviation="1.5"/><feComposite in2="hardAlpha" operator="out"/><feColorMatrix type="matrix" values="0 0 0 0 0 0 0 0 0 0 0 0 0 0 0 0 0 0 0.5 0"/><feBlend in2="BackgroundImageFix" mode="normal" result="effect1_dropShadow_126_117"/><feBlend in="SourceGraphic" in2="effect1_dropShadow_126_117" mode="normal" result="shape"/></filter></defs></svg>