<svg xmlns="http://www.w3.org/2000/svg" width="28" height="29" fill="none" viewBox="0 0 28 29"><path fill="#525252" d="M27.0865 15.183C27.6745 14.406 28 13.454 28 12.4635C28 10.892 27.1215 9.40452 25.7075 8.57502C25.3435 8.36151 24.929 8.24913 24.507 8.24952H16.114L16.324 3.94802C16.373 2.90853 16.0055 1.92153 15.2915 1.16903C14.9411 0.798124 14.5184 0.503021 14.0494 0.301954C13.5804 0.100887 13.0752 -0.00187255 12.565 2.58306e-05C10.745 2.58306e-05 9.135 1.22503 8.652 2.97853L5.6455 13.8635H5.635V28.8435H22.1655C22.4875 28.8435 22.8025 28.7805 23.093 28.6545C24.759 27.944 25.8335 26.3165 25.8335 24.5105C25.8335 24.0695 25.7705 23.6355 25.6445 23.2155C26.2325 22.4385 26.558 21.4865 26.558 20.496C26.558 20.055 26.495 19.621 26.369 19.201C26.957 18.424 27.2825 17.472 27.2825 16.4815C27.2755 16.0405 27.2125 15.603 27.0865 15.183ZM0 14.9835V27.7235C0 28.343 0.5005 28.8435 1.12 28.8435H3.395V13.8635H1.12C0.5005 13.8635 0 14.364 0 14.9835Z"/></svg>