<svg width="36" height="37" viewBox="0 0 36 37" fill="none" xmlns="http://www.w3.org/2000/svg">
<g filter="url(#filter0_d_150_4)">
<path d="M31.0865 17.183C31.6745 16.406 32 15.454 32 14.4635C32 12.892 31.1215 11.4045 29.7075 10.575C29.3435 10.3615 28.929 10.2491 28.507 10.2495H20.114L20.324 5.94802C20.373 4.90853 20.0055 3.92153 19.2915 3.16903C18.9411 2.79812 18.5184 2.50302 18.0494 2.30195C17.5804 2.10089 17.0752 1.99813 16.565 2.00003C14.745 2.00003 13.135 3.22503 12.652 4.97853L9.6455 15.8635H5.12C4.5005 15.8635 4 16.364 4 16.9835V29.7235C4 30.343 4.5005 30.8435 5.12 30.8435H26.1655C26.4875 30.8435 26.8025 30.7805 27.093 30.6545C28.759 29.944 29.8335 28.3165 29.8335 26.5105C29.8335 26.0695 29.7705 25.6355 29.6445 25.2155C30.2325 24.4385 30.558 23.4865 30.558 22.496C30.558 22.055 30.495 21.621 30.369 21.201C30.957 20.424 31.2825 19.472 31.2825 18.4815C31.2755 18.0405 31.2125 17.603 31.0865 17.183ZM6.52 28.3235V18.3835H9.355V28.3235H6.52ZM28.794 15.9685L28.0275 16.6335L28.514 17.5225C28.6743 17.8154 28.7574 18.1442 28.7555 18.478C28.7555 19.0555 28.5035 19.605 28.0695 19.983L27.303 20.648L27.7895 21.537C27.9498 21.8299 28.0329 22.1587 28.031 22.4925C28.031 23.07 27.779 23.6195 27.345 23.9975L26.5785 24.6625L27.065 25.5515C27.2253 25.8444 27.3084 26.1732 27.3065 26.507C27.3065 27.291 26.8445 27.998 26.1305 28.32H11.595V18.2715L15.0775 5.65403C15.1673 5.33063 15.3601 5.04531 15.6266 4.84131C15.8931 4.63731 16.2189 4.52575 16.5545 4.52353C16.8205 4.52353 17.083 4.60053 17.293 4.75803C17.6395 5.01703 17.825 5.40903 17.804 5.82553L17.468 12.7695H28.472C29.095 13.151 29.48 13.795 29.48 14.4635C29.48 15.041 29.228 15.587 28.794 15.9685Z" fill="#525252"/>
</g>
<defs>
<filter id="filter0_d_150_4" x="0" y="0" width="36" height="36.8435" filterUnits="userSpaceOnUse" color-interpolation-filters="sRGB">
<feFlood flood-opacity="0" result="BackgroundImageFix"/>
<feColorMatrix in="SourceAlpha" type="matrix" values="0 0 0 0 0 0 0 0 0 0 0 0 0 0 0 0 0 0 127 0" result="hardAlpha"/>
<feOffset dy="2"/>
<feGaussianBlur stdDeviation="2"/>
<feComposite in2="hardAlpha" operator="out"/>
<feColorMatrix type="matrix" values="0 0 0 0 0 0 0 0 0 0 0 0 0 0 0 0 0 0 0.25 0"/>
<feBlend mode="normal" in2="BackgroundImageFix" result="effect1_dropShadow_150_4"/>
<feBlend mode="normal" in="SourceGraphic" in2="effect1_dropShadow_150_4" result="shape"/>
</filter>
</defs>
</svg>
