<svg width="34" height="34" viewBox="0 0 34 34" fill="none" xmlns="http://www.w3.org/2000/svg">
<path d="M16.9995 2C14.6126 2 12.3234 2.94821 10.6356 4.63604C8.94772 6.32387 7.99951 8.61305 7.99951 11C7.99951 13.1285 8.45251 14.522 9.68701 16.0625L16.9995 24.5L24.312 16.0625C25.5465 14.522 25.9995 13.1285 25.9995 11C25.9995 8.61305 25.0513 6.32387 23.3635 4.63604C21.6756 2.94821 19.3865 2 16.9995 2V2Z" stroke="black" stroke-width="2.5" stroke-linecap="round" stroke-linejoin="round"/>
<path d="M6.5 21.7145C3.7235 22.805 2 24.3215 2 26C2 29.315 8.7155 32 17 32C25.2845 32 32 29.315 32 26C32 24.3215 30.2765 22.805 27.5 21.7145" stroke="black" stroke-width="2.5" stroke-linecap="round" stroke-linejoin="round"/>
<path d="M16.9995 12.5C17.8279 12.5 18.4995 11.8284 18.4995 11C18.4995 10.1716 17.8279 9.5 16.9995 9.5C16.1711 9.5 15.4995 10.1716 15.4995 11C15.4995 11.8284 16.1711 12.5 16.9995 12.5Z" stroke="black" stroke-width="2.5" stroke-linecap="round" stroke-linejoin="round"/>
</svg>
