<svg xmlns="http://www.w3.org/2000/svg" width="61" height="53" fill="none" viewBox="0 0 61 53"><g filter="url(#filter0_d_34_7)"><path fill="#fff" d="M11.1047 8.47837C8.33659 13.1395 5.77052 17.459 5.40682 18.0818L4.76025 19.2069L6.74037 22.5018L8.70029 25.8168L12.3574 25.8771L16.0146 25.9173L17.5502 28.5894C18.3988 30.056 19.0858 31.3418 19.0858 31.4423C19.0858 31.5427 18.2574 32.9893 17.2673 34.6769L15.4287 37.7106L17.429 40.9051L19.4293 44.0996L30.5422 44.1598L41.6753 44.2L43.2514 41.4476C44.1 39.9206 44.9284 38.4942 45.0698 38.2732C45.3123 37.9116 45.1507 37.5499 43.6353 34.8778C42.6856 33.2304 41.9178 31.8441 41.9178 31.8039C41.9178 31.7436 42.6452 30.3976 43.5544 28.8104L45.1911 25.9173H48.8482L52.5256 25.9173L54.3441 22.5822C55.3543 20.7539 56.1423 19.1667 56.1019 19.0261C56.0211 18.7448 45.7972 0.823734 45.4941 0.442006C45.3527 0.261188 44.3222 0.200913 41.5945 0.200913H37.897L35.9572 3.315L33.9973 6.42909H30.6837H27.37L25.7536 3.21455L24.1371 4.72069e-06H20.1365H16.156L11.1047 8.47837ZM49.9191 9.18155C52.566 13.8025 54.8896 17.8809 55.1119 18.2225L55.4958 18.8855L52.0609 18.8855H48.626L46.8479 15.7714L45.0496 12.6573H34.3206H23.5714L22.0358 9.9651C21.1872 8.47837 20.5002 7.21264 20.5002 7.15237C20.5002 7.0921 25.309 7.01173 31.1888 6.99164L41.8572 6.93137L40.1801 3.95791C39.2507 2.31046 38.4829 0.924186 38.4829 0.884004C38.4829 0.843822 39.9781 0.80364 41.7966 0.80364H45.09L49.9191 9.18155ZM17.9139 3.79719L19.4899 6.58982L17.7523 9.58337C16.7824 11.2107 15.9944 12.6573 15.9944 12.7778C15.9944 12.8984 18.318 17.0974 21.167 22.1402C24.0361 27.1629 26.3597 31.3619 26.3597 31.4423C26.3597 31.7236 23.2885 36.7664 23.1673 36.686C23.0865 36.6458 20.7022 32.5272 17.8735 27.5446C15.0448 22.5822 12.6605 18.5037 12.5999 18.4836C12.5191 18.4836 11.6705 19.9302 10.6804 21.6982C9.32665 24.1091 8.82152 24.8324 8.65988 24.6516C8.53865 24.5109 7.73043 23.2452 6.88181 21.8187C5.75031 19.9302 5.36641 19.1266 5.48764 18.8855C5.87155 18.0818 16.156 1.00455 16.2571 1.00455C16.3177 1.00455 17.0653 2.27028 17.9139 3.79719ZM33.3912 19.6489C33.2497 20.0306 30.522 24.7118 30.4816 24.6516C30.3402 24.5109 27.572 19.7092 27.572 19.6087C27.572 19.5485 28.9056 19.4882 30.522 19.4882C32.1384 19.4882 33.4316 19.5686 33.3912 19.6489ZM46.4236 19.669L47.7975 19.7896L42.524 28.8907C39.6346 33.8934 37.2706 38.012 37.2706 38.0723C37.2706 38.1125 38.887 38.1928 40.8671 38.2129L44.4637 38.2732L42.8472 41.0256L41.2308 43.7982L30.7645 43.7982C25.006 43.7982 20.2981 43.7379 20.2981 43.6375C20.3183 43.5571 21.0255 42.3115 21.8741 40.885L23.4502 38.2732L27.0265 38.2129L30.6028 38.1727L31.0676 37.4093C31.3302 37.0075 33.7953 32.8085 36.5634 28.067L41.5743 19.4882L43.312 19.5083C44.2616 19.5284 45.676 19.5886 46.4236 19.669Z"/></g><defs><filter id="filter0_d_34_7" width="59.343" height="52.2" x=".76" y="0" color-interpolation-filters="sRGB" filterUnits="userSpaceOnUse"><feFlood flood-opacity="0" result="BackgroundImageFix"/><feColorMatrix in="SourceAlpha" result="hardAlpha" type="matrix" values="0 0 0 0 0 0 0 0 0 0 0 0 0 0 0 0 0 0 127 0"/><feOffset dy="4"/><feGaussianBlur stdDeviation="2"/><feComposite in2="hardAlpha" operator="out"/><feColorMatrix type="matrix" values="0 0 0 0 0 0 0 0 0 0 0 0 0 0 0 0 0 0 0.5 0"/><feBlend in2="BackgroundImageFix" mode="normal" result="effect1_dropShadow_34_7"/><feBlend in="SourceGraphic" in2="effect1_dropShadow_34_7" mode="normal" result="shape"/></filter></defs></svg>