<svg xmlns="http://www.w3.org/2000/svg" width="61" height="53" fill="none" viewBox="0 0 61 53"><g filter="url(#filter0_d_45_239)"><path fill="#0D0D0D" d="M11.1045 8.47837C8.33635 13.1395 5.77027 17.459 5.40658 18.0818L4.76001 19.2069L6.74013 22.5018L8.70004 25.8168L12.3572 25.8771L16.0144 25.9173L17.55 28.5894C18.3986 30.056 19.0856 31.3418 19.0856 31.4423C19.0856 31.5427 18.2572 32.9893 17.2671 34.6769L15.4284 37.7106L17.4287 40.9051L19.4291 44.0996L30.542 44.1598L41.6751 44.2L43.2511 41.4476C44.0997 39.9206 44.9281 38.4942 45.0696 38.2732C45.312 37.9116 45.1504 37.5499 43.635 34.8778C42.6854 33.2304 41.9176 31.8441 41.9176 31.8039C41.9176 31.7436 42.645 30.3976 43.5542 28.8104L45.1908 25.9173H48.848L52.5253 25.9173L54.3438 22.5822C55.3541 20.7539 56.1421 19.1667 56.1017 19.0261C56.0209 18.7448 45.797 0.823734 45.4939 0.442006C45.3525 0.261188 44.322 0.200913 41.5943 0.200913H37.8967L35.957 3.315L33.9971 6.42909H30.6834H27.3697L25.7533 3.21455L24.1369 4.72069e-06H20.1362H16.1558L11.1045 8.47837ZM49.9189 9.18155C52.5658 13.8025 54.8894 17.8809 55.1116 18.2225L55.4955 18.8855L52.0606 18.8855H48.6257L46.8477 15.7714L45.0494 12.6573H34.3204H23.5711L22.0355 9.9651C21.1869 8.47837 20.4999 7.21264 20.4999 7.15237C20.4999 7.0921 25.3088 7.01173 31.1885 6.99164L41.8569 6.93137L40.1799 3.95791C39.2505 2.31046 38.4827 0.924186 38.4827 0.884004C38.4827 0.843822 39.9778 0.80364 41.7963 0.80364H45.0898L49.9189 9.18155ZM17.9137 3.79719L19.4897 6.58982L17.752 9.58337C16.7822 11.2107 15.9942 12.6573 15.9942 12.7778C15.9942 12.8984 18.3178 17.0974 21.1667 22.1402C24.0359 27.1629 26.3595 31.3619 26.3595 31.4423C26.3595 31.7236 23.2883 36.7664 23.167 36.686C23.0862 36.6458 20.702 32.5272 17.8733 27.5446C15.0445 22.5822 12.6603 18.5037 12.5997 18.4836C12.5188 18.4836 11.6702 19.9302 10.6802 21.6982C9.32641 24.1091 8.82128 24.8324 8.65963 24.6516C8.5384 24.5109 7.73019 23.2452 6.88157 21.8187C5.75007 19.9302 5.36617 19.1266 5.4874 18.8855C5.8713 18.0818 16.1558 1.00455 16.2568 1.00455C16.3174 1.00455 17.065 2.27028 17.9137 3.79719ZM33.3909 19.6489C33.2495 20.0306 30.5218 24.7118 30.4814 24.6516C30.3399 24.5109 27.5718 19.7092 27.5718 19.6087C27.5718 19.5485 28.9053 19.4882 30.5218 19.4882C32.1382 19.4882 33.4313 19.5686 33.3909 19.6489ZM46.4233 19.669L47.7973 19.7896L42.5237 28.8907C39.6344 33.8934 37.2703 38.012 37.2703 38.0723C37.2703 38.1125 38.8868 38.1928 40.8669 38.2129L44.4634 38.2732L42.847 41.0256L41.2306 43.7982L30.7642 43.7982C25.0057 43.7982 20.2979 43.7379 20.2979 43.6375C20.3181 43.5571 21.0253 42.3115 21.8739 40.885L23.4499 38.2732L27.0263 38.2129L30.6026 38.1727L31.0673 37.4093C31.33 37.0075 33.795 32.8085 36.5632 28.067L41.5741 19.4882L43.3117 19.5083C44.2614 19.5284 45.6757 19.5886 46.4233 19.669Z"/></g><defs><filter id="filter0_d_45_239" width="59.343" height="52.2" x=".76" y="0" color-interpolation-filters="sRGB" filterUnits="userSpaceOnUse"><feFlood flood-opacity="0" result="BackgroundImageFix"/><feColorMatrix in="SourceAlpha" result="hardAlpha" type="matrix" values="0 0 0 0 0 0 0 0 0 0 0 0 0 0 0 0 0 0 127 0"/><feOffset dy="4"/><feGaussianBlur stdDeviation="2"/><feComposite in2="hardAlpha" operator="out"/><feColorMatrix type="matrix" values="0 0 0 0 0 0 0 0 0 0 0 0 0 0 0 0 0 0 0.25 0"/><feBlend in2="BackgroundImageFix" mode="normal" result="effect1_dropShadow_45_239"/><feBlend in="SourceGraphic" in2="effect1_dropShadow_45_239" mode="normal" result="shape"/></filter></defs></svg>