<svg xmlns="http://www.w3.org/2000/svg" width="39" height="45" fill="none" viewBox="0 0 39 45"><g filter="url(#filter0_d_145_78)"><path stroke="#000" stroke-linecap="round" stroke-linejoin="round" stroke-width="4" d="M30.875 12.375H8.125C7.22754 12.375 6.5 13.1025 6.5 14V35.125C6.5 36.0225 7.22754 36.75 8.125 36.75H30.875C31.7724 36.75 32.5 36.0225 32.5 35.125V14C32.5 13.1025 31.7724 12.375 30.875 12.375Z"/><path stroke="#000" stroke-linecap="round" stroke-linejoin="round" stroke-width="4" d="M13.8125 15.625V9.9375C13.8125 9.19061 13.9596 8.45103 14.2454 7.76099C14.5313 7.07095 14.9502 6.44396 15.4783 5.91583C16.0065 5.3877 16.6334 4.96876 17.3235 4.68294C18.0135 4.39711 18.7531 4.25 19.5 4.25C20.2469 4.25 20.9865 4.39711 21.6765 4.68294C22.3666 4.96876 22.9935 5.3877 23.5217 5.91583C24.0498 6.44396 24.4687 7.07095 24.7546 7.76099C25.0404 8.45103 25.1875 9.19061 25.1875 9.9375V15.625"/></g><defs><filter id="filter0_d_145_78" width="38" height="44.5" x=".5" y=".25" color-interpolation-filters="sRGB" filterUnits="userSpaceOnUse"><feFlood flood-opacity="0" result="BackgroundImageFix"/><feColorMatrix in="SourceAlpha" result="hardAlpha" type="matrix" values="0 0 0 0 0 0 0 0 0 0 0 0 0 0 0 0 0 0 127 0"/><feOffset dy="2"/><feGaussianBlur stdDeviation="2"/><feComposite in2="hardAlpha" operator="out"/><feColorMatrix type="matrix" values="0 0 0 0 0 0 0 0 0 0 0 0 0 0 0 0 0 0 0.25 0"/><feBlend in2="BackgroundImageFix" mode="normal" result="effect1_dropShadow_145_78"/><feBlend in="SourceGraphic" in2="effect1_dropShadow_145_78" mode="normal" result="shape"/></filter></defs></svg>