<svg xmlns="http://www.w3.org/2000/svg" width="46" height="45" fill="none" viewBox="0 0 46 45"><g filter="url(#filter0_d_145_46)"><path fill="#000" fill-opacity=".22" stroke="#020202" stroke-linecap="round" stroke-linejoin="round" stroke-width="2" d="M23.0283 28.3536C22.6602 28.3536 22.3004 28.4611 21.9943 28.6624C21.6883 28.8637 21.4497 29.1499 21.3088 29.4847C21.168 29.8195 21.1311 30.1879 21.2029 30.5433C21.2747 30.8988 21.452 31.2253 21.7123 31.4815C21.9726 31.7378 22.3042 31.9123 22.6652 31.983C23.0263 32.0537 23.4005 32.0174 23.7406 31.8787C24.0806 31.74 24.3713 31.5052 24.5758 31.2039C24.7803 30.9025 24.8895 30.5483 24.8895 30.1859C24.8895 29.6999 24.6934 29.2339 24.3444 28.8903C23.9953 28.5466 23.5219 28.3536 23.0283 28.3536ZM23.0283 33.7731C21.7537 33.7767 20.5228 34.2313 19.5604 35.0541C18.5979 35.8769 17.968 37.0129 17.7856 38.2549C21.208 39.2476 24.8486 39.2476 28.271 38.2549C28.0886 37.0129 27.4587 35.8769 26.4963 35.0541C25.5338 34.2313 24.303 33.7767 23.0283 33.7731Z"/><path fill="#000" fill-opacity=".22" stroke="#020202" stroke-linecap="round" stroke-linejoin="round" stroke-width="2" d="M16.0711 29.1794C17.099 29.1794 17.9323 28.3591 17.9323 27.3471C17.9323 26.3352 17.099 25.5148 16.0711 25.5148C15.0432 25.5148 14.21 26.3352 14.21 27.3471C14.21 28.3591 15.0432 29.1794 16.0711 29.1794Z"/><path fill="#000" fill-opacity=".22" stroke="#020202" stroke-linecap="round" stroke-linejoin="round" stroke-width="2" d="M13.4955 29.8848C12.5974 28.9908 11.3988 28.4503 10.1245 28.3647C8.85033 28.2792 7.58822 28.6545 6.5752 29.4202C8.29559 32.4818 10.8576 35.0041 13.9674 36.6978C14.7452 35.7005 15.1264 34.458 15.0395 33.2035C14.9526 31.949 14.4036 30.7689 13.4955 29.8848Z"/><path fill="#000" fill-opacity=".22" stroke="#020202" stroke-linecap="round" stroke-linejoin="round" stroke-width="2" d="M13.1888 22.332C14.2167 22.332 15.0499 21.5116 15.0499 20.4997C15.0499 19.4877 14.2167 18.6674 13.1888 18.6674C12.1609 18.6674 11.3276 19.4877 11.3276 20.4997C11.3276 21.5116 12.1609 22.332 13.1888 22.332Z"/><path fill="#000" fill-opacity=".22" stroke="#020202" stroke-linecap="round" stroke-linejoin="round" stroke-width="2" d="M9.54497 20.4997C9.54132 19.2448 9.07949 18.033 8.24376 17.0855C7.40804 16.138 6.25412 15.5179 4.99258 15.3383C3.98424 18.7076 3.98424 22.2918 4.99258 25.6611C6.25412 25.4815 7.40804 24.8614 8.24376 23.9139C9.07949 22.9664 9.54132 21.7546 9.54497 20.4997Z"/><path fill="#000" fill-opacity=".22" stroke="#020202" stroke-linecap="round" stroke-linejoin="round" stroke-width="2" d="M16.0711 15.4845C17.099 15.4845 17.9323 14.6642 17.9323 13.6522C17.9323 12.6403 17.099 11.8199 16.0711 11.8199C15.0432 11.8199 14.21 12.6403 14.21 13.6522C14.21 14.6642 15.0432 15.4845 16.0711 15.4845Z"/><path fill="#000" fill-opacity=".22" stroke="#020202" stroke-linecap="round" stroke-linejoin="round" stroke-width="2" d="M13.4955 11.1146C14.4036 10.2304 14.9526 9.05034 15.0395 7.79588C15.1264 6.54141 14.7452 5.29887 13.9674 4.30155C10.8576 5.99528 8.29559 8.51754 6.5752 11.5791C7.58822 12.3448 8.85033 12.7202 10.1245 12.6346C11.3988 12.5491 12.5974 12.0086 13.4955 11.1146ZM23.0285 8.98122C22.6586 8.97952 22.2966 9.08582 21.9882 9.28669C21.6797 9.48755 21.4387 9.77396 21.2956 10.1097C21.1524 10.4454 21.1136 10.8154 21.1841 11.1728C21.2546 11.5302 21.4311 11.8591 21.6914 12.1177C21.9517 12.3764 22.284 12.5532 22.6464 12.6259C23.0088 12.6986 23.3849 12.6639 23.7272 12.5261C24.0696 12.3884 24.3627 12.1538 24.5696 11.852C24.7765 11.5502 24.8879 11.1948 24.8896 10.8307C24.8919 10.5887 24.8455 10.3485 24.753 10.1242C24.6605 9.89995 24.5238 9.69592 24.3507 9.52395C24.1777 9.35198 23.9717 9.21547 23.7448 9.12232C23.5178 9.02916 23.2743 8.9812 23.0285 8.98122ZM23.0285 7.23494C24.3054 7.23463 25.5393 6.78002 26.5027 5.95485C27.4661 5.12969 28.0941 3.98957 28.2711 2.74453C24.8487 1.75182 21.2082 1.75182 17.7858 2.74453C17.9628 3.98957 18.5908 5.12969 19.5542 5.95485C20.5176 6.78002 21.7515 7.23463 23.0285 7.23494Z"/><path fill="#000" fill-opacity=".22" stroke="#020202" stroke-linecap="round" stroke-linejoin="round" stroke-width="2" d="M29.9744 15.4846C31.0023 15.4846 31.8356 14.6642 31.8356 13.6523C31.8356 12.6403 31.0023 11.82 29.9744 11.82C28.9465 11.82 28.1133 12.6403 28.1133 13.6523C28.1133 14.6642 28.9465 15.4846 29.9744 15.4846Z"/><path fill="#000" fill-opacity=".22" stroke="#020202" stroke-linecap="round" stroke-linejoin="round" stroke-width="2" d="M32.5591 11.1146C33.4572 12.0086 34.6558 12.5491 35.93 12.6346C37.2043 12.7201 38.4664 12.3448 39.4794 11.5791C37.759 8.51751 35.197 5.99525 32.0872 4.30152C31.3094 5.29884 30.9282 6.54138 31.0151 7.79585C31.102 9.05031 31.651 10.2304 32.5591 11.1146Z"/><path fill="#000" fill-opacity=".22" stroke="#020202" stroke-linecap="round" stroke-linejoin="round" stroke-width="2" d="M32.8651 22.332C33.8929 22.332 34.7262 21.5116 34.7262 20.4997C34.7262 19.4877 33.8929 18.6674 32.8651 18.6674C31.8372 18.6674 31.0039 19.4877 31.0039 20.4997C31.0039 21.5116 31.8372 22.332 32.8651 22.332Z"/><path fill="#000" fill-opacity=".22" stroke="#020202" stroke-linecap="round" stroke-linejoin="round" stroke-width="2" d="M41.063 15.3383C39.6725 15.3383 38.339 15.8821 37.3559 16.85C36.3727 17.818 35.8203 19.1308 35.8203 20.4997C35.8203 21.8686 36.3727 23.1814 37.3559 24.1494C38.339 25.1173 39.6725 25.6611 41.063 25.6611C42.0713 22.2918 42.0713 18.7076 41.063 15.3383Z"/><path fill="#000" fill-opacity=".22" stroke="#020202" stroke-linecap="round" stroke-linejoin="round" stroke-width="2" d="M29.9744 29.1795C31.0023 29.1795 31.8356 28.3591 31.8356 27.3472C31.8356 26.3352 31.0023 25.5149 29.9744 25.5149C28.9465 25.5149 28.1133 26.3352 28.1133 27.3472C28.1133 28.3591 28.9465 29.1795 29.9744 29.1795Z"/><path fill="#000" fill-opacity=".22" stroke="#020202" stroke-linecap="round" stroke-linejoin="round" stroke-width="2" d="M32.5591 29.8848C31.651 30.7689 31.102 31.949 31.0151 33.2035C30.9282 34.458 31.3094 35.7005 32.0872 36.6978C35.197 35.0041 37.759 32.4818 39.4794 29.4202C38.4664 28.6545 37.2043 28.2792 35.93 28.3647C34.6558 28.4503 33.4572 28.9908 32.5591 29.8848Z"/></g><defs><filter id="filter0_d_145_46" width="45.583" height="44.999" x=".236" y="0" color-interpolation-filters="sRGB" filterUnits="userSpaceOnUse"><feFlood flood-opacity="0" result="BackgroundImageFix"/><feColorMatrix in="SourceAlpha" result="hardAlpha" type="matrix" values="0 0 0 0 0 0 0 0 0 0 0 0 0 0 0 0 0 0 127 0"/><feOffset dy="2"/><feGaussianBlur stdDeviation="1.5"/><feComposite in2="hardAlpha" operator="out"/><feColorMatrix type="matrix" values="0 0 0 0 0 0 0 0 0 0 0 0 0 0 0 0 0 0 0.25 0"/><feBlend in2="BackgroundImageFix" mode="normal" result="effect1_dropShadow_145_46"/><feBlend in="SourceGraphic" in2="effect1_dropShadow_145_46" mode="normal" result="shape"/></filter></defs></svg>