<svg xmlns="http://www.w3.org/2000/svg" width="29" height="38" fill="none" viewBox="0 0 29 38"><path fill="#6E7074" stroke="#fff" stroke-linecap="round" stroke-linejoin="round" stroke-miterlimit="10" stroke-width="2.5" d="M14.6811 22.1633L23.8745 35.511C24.9862 37.1251 27.6122 36.4069 27.6122 34.3611V3.78552C27.6122 2.64298 26.6768 1.75 25.5643 1.75H3.79789C2.68536 1.75 1.75 2.64299 1.75 3.78552V34.3611C1.75 36.4069 4.37598 37.1251 5.48772 35.511L14.6811 22.1633Z"/><path fill="#6E7074" stroke="#fff" stroke-linecap="round" stroke-linejoin="round" stroke-miterlimit="10" stroke-width="2.5" d="M14.6811 22.1633L23.8745 35.511C24.9862 37.1251 27.6122 36.4069 27.6122 34.3611V3.78552C27.6122 2.64298 26.6768 1.75 25.5643 1.75H3.79789C2.68536 1.75 1.75 2.64299 1.75 3.78552V34.3611C1.75 36.4069 4.37598 37.1251 5.48772 35.511L14.6811 22.1633Z"/><path stroke="#fff" stroke-linecap="round" stroke-linejoin="round" stroke-miterlimit="10" stroke-width="2.5" d="M6.92432 6.64188H15.0004"/><path stroke="#fff" stroke-linecap="round" stroke-linejoin="round" stroke-miterlimit="10" stroke-width="2.5" d="M17.1543 6.64188H18.8368"/></svg>