<svg width="36" height="46" viewBox="0 0 36 46" fill="none" xmlns="http://www.w3.org/2000/svg">
<path fill-rule="evenodd" clip-rule="evenodd" d="M0.75 44.5625V5.75C0.75 4.22501 1.3558 2.76247 2.43414 1.68414C3.51247 0.605802 4.97501 0 6.5 0L29.5 0C31.025 0 32.4875 0.605802 33.5659 1.68414C34.6442 2.76247 35.25 4.22501 35.25 5.75V44.5625C35.2502 44.8121 35.1854 45.0575 35.0619 45.2745C34.9385 45.4914 34.7606 45.6725 34.5459 45.7999C34.3312 45.9272 34.0871 45.9965 33.8375 46.0008C33.5879 46.0052 33.3415 45.9444 33.1225 45.8246L18 37.5734L2.8775 45.8246C2.65851 45.9444 2.41209 46.0052 2.1625 46.0008C1.91291 45.9965 1.66876 45.9272 1.45406 45.7999C1.23937 45.6725 1.06155 45.4914 0.938096 45.2745C0.814643 45.0575 0.749818 44.8121 0.75 44.5625ZM26.2053 16.8303C26.4752 16.5603 26.6268 16.1942 26.6268 15.8125C26.6268 15.4308 26.4752 15.0647 26.2053 14.7947C25.9353 14.5248 25.5692 14.3732 25.1875 14.3732C24.8058 14.3732 24.4397 14.5248 24.1697 14.7947L16.5625 22.4049L13.2678 19.1072C13.1341 18.9736 12.9754 18.8676 12.8008 18.7952C12.6262 18.7229 12.439 18.6857 12.25 18.6857C12.061 18.6857 11.8738 18.7229 11.6992 18.7952C11.5246 18.8676 11.3659 18.9736 11.2323 19.1072C11.0986 19.2409 10.9926 19.3996 10.9202 19.5742C10.8479 19.7488 10.8107 19.936 10.8107 20.125C10.8107 20.314 10.8479 20.5012 10.9202 20.6758C10.9926 20.8504 11.0986 21.0091 11.2323 21.1428L15.5447 25.4553C15.6783 25.5891 15.8369 25.6953 16.0116 25.7678C16.1862 25.8403 16.3734 25.8776 16.5625 25.8776C16.7516 25.8776 16.9388 25.8403 17.1134 25.7678C17.2881 25.6953 17.4467 25.5891 17.5803 25.4553L26.2053 16.8303Z" fill="#525252"/>
</svg>
