<svg xmlns="http://www.w3.org/2000/svg" width="30" height="38" fill="none" viewBox="0 0 30 38"><path fill="#000" fill-opacity=".09" stroke="#000" stroke-linecap="round" stroke-linejoin="round" stroke-miterlimit="10" stroke-width="2.5" d="M15.0434 22.1633L24.2368 35.511C25.3485 37.1251 27.9745 36.4069 27.9745 34.3611V3.78552C27.9745 2.64298 27.0392 1.75 25.9266 1.75H4.16019C3.04766 1.75 2.1123 2.64299 2.1123 3.78552V34.3611C2.1123 36.4069 4.73829 37.1251 5.85002 35.511L15.0434 22.1633Z"/><path stroke="#000" stroke-linecap="round" stroke-linejoin="round" stroke-miterlimit="10" stroke-width="2.5" d="M7.28662 6.64188H15.3627"/><path stroke="#000" stroke-linecap="round" stroke-linejoin="round" stroke-miterlimit="10" stroke-width="2.5" d="M17.5166 6.64188H19.1991"/><path fill="#000" fill-opacity=".09" stroke="#000" stroke-linecap="round" stroke-linejoin="round" stroke-miterlimit="10" stroke-width="2.5" d="M15.0434 22.1633L24.2368 35.511C25.3485 37.1251 27.9745 36.4069 27.9745 34.3611V3.78552C27.9745 2.64298 27.0392 1.75 25.9266 1.75H4.16019C3.04766 1.75 2.1123 2.64299 2.1123 3.78552V34.3611C2.1123 36.4069 4.73829 37.1251 5.85002 35.511L15.0434 22.1633Z"/></svg>