<svg xmlns="http://www.w3.org/2000/svg" width="30" height="30" fill="none" viewBox="0 0 30 30"><path fill="#A4A4A4" stroke="#A4A4A4" d="M12.2722 1C6.04682 1 1 6.04682 1 12.2722C1 18.4975 6.04682 23.5443 12.2722 23.5443C14.8597 23.5483 17.3692 22.6583 19.376 21.0248L26.9952 28.644C27.1027 28.7554 27.2314 28.8442 27.3737 28.9053C27.5159 28.9664 27.6689 28.9986 27.8238 29C27.9786 29.0013 28.1322 28.9718 28.2755 28.9132C28.4188 28.8545 28.549 28.7679 28.6585 28.6585C28.7679 28.549 28.8545 28.4188 28.9132 28.2755C28.9718 28.1322 29.0013 27.9786 29 27.8238C28.9986 27.6689 28.9664 27.5159 28.9053 27.3737C28.8442 27.2314 28.7554 27.1027 28.644 26.9952L21.0256 19.376C22.6588 17.3691 23.5485 14.8596 23.5443 12.2722C23.5443 6.04682 18.4975 1 12.2722 1ZM3.33217 12.2722C3.33217 7.33496 7.33496 3.33217 12.2722 3.33217C17.2094 3.33217 21.2122 7.33496 21.2122 12.2722C21.2122 17.2094 17.2094 21.2122 12.2722 21.2122C7.33496 21.2122 3.33217 17.2094 3.33217 12.2722Z"/></svg>