<svg xmlns="http://www.w3.org/2000/svg" width="36" height="38" fill="none" viewBox="0 0 36 38"><g filter="url(#filter0_d_145_30)"><path stroke="#000" stroke-linecap="round" stroke-width="2.5" d="M30 27.1111H12.6667M4 6.88885H9.77778H4ZM30 6.88885H15.5556H30ZM4 17H21.3333H4ZM30 17H27.1111H30ZM4 27.1111H6.88889H4Z"/><path stroke="#000" stroke-linecap="round" stroke-width="2.5" d="M12.6667 9.77778C14.2622 9.77778 15.5556 8.48438 15.5556 6.88889C15.5556 5.2934 14.2622 4 12.6667 4C11.0712 4 9.77783 5.2934 9.77783 6.88889C9.77783 8.48438 11.0712 9.77778 12.6667 9.77778Z"/><path stroke="#000" stroke-linecap="round" stroke-width="2.5" d="M24.2219 19.8889C25.8174 19.8889 27.1108 18.5955 27.1108 17C27.1108 15.4045 25.8174 14.1111 24.2219 14.1111C22.6264 14.1111 21.333 15.4045 21.333 17C21.333 18.5955 22.6264 19.8889 24.2219 19.8889Z"/><path stroke="#000" stroke-linecap="round" stroke-width="2.5" d="M9.77805 30C11.3735 30 12.6669 28.7066 12.6669 27.1111C12.6669 25.5156 11.3735 24.2222 9.77805 24.2222C8.18256 24.2222 6.88916 25.5156 6.88916 27.1111C6.88916 28.7066 8.18256 30 9.77805 30Z"/></g><defs><filter id="filter0_d_145_30" width="35.25" height="36.5" x="0" y=".75" color-interpolation-filters="sRGB" filterUnits="userSpaceOnUse"><feFlood flood-opacity="0" result="BackgroundImageFix"/><feColorMatrix in="SourceAlpha" result="hardAlpha" type="matrix" values="0 0 0 0 0 0 0 0 0 0 0 0 0 0 0 0 0 0 127 0"/><feOffset dy="2"/><feGaussianBlur stdDeviation="2"/><feComposite in2="hardAlpha" operator="out"/><feColorMatrix type="matrix" values="0 0 0 0 0 0 0 0 0 0 0 0 0 0 0 0 0 0 0.25 0"/><feBlend in2="BackgroundImageFix" mode="normal" result="effect1_dropShadow_145_30"/><feBlend in="SourceGraphic" in2="effect1_dropShadow_145_30" mode="normal" result="shape"/></filter></defs></svg>