<svg xmlns="http://www.w3.org/2000/svg" width="30" height="32" fill="none" viewBox="0 0 30 32"><g filter="url(#filter0_d_150_28)"><path fill="#525252" d="M8.04862 17.01C9.05854 17.007 10.0302 16.6236 10.7701 15.9362L17.9982 20.0664C17.756 21.0127 17.8628 22.0147 18.2989 22.8887C18.7351 23.7628 19.4715 24.4505 20.3732 24.8261C21.275 25.2016 22.2819 25.2397 23.2095 24.9336C24.1372 24.6274 24.9235 23.9974 25.4246 23.1588C25.9256 22.3203 26.1079 21.3293 25.9381 20.3674C25.7682 19.4054 25.2576 18.5368 24.4997 17.9205C23.7417 17.3043 22.7872 16.9816 21.8108 17.0116C20.8344 17.0416 19.9015 17.4222 19.1829 18.0839L11.9548 13.9537C12.031 13.665 12.0726 13.366 12.0795 13.0669L19.1805 9.00836C19.8643 9.63046 20.7412 9.99848 21.6641 10.0507C22.587 10.1029 23.4998 9.8361 24.2494 9.29508C24.9989 8.75406 25.5396 7.97173 25.7807 7.07933C26.0218 6.18692 25.9487 5.23875 25.5736 4.39387C25.1985 3.54899 24.5443 2.85882 23.7206 2.43913C22.897 2.01944 21.9541 1.89578 21.0501 2.08889C20.1461 2.28199 19.336 2.78012 18.7557 3.4997C18.1754 4.21928 17.8603 5.11653 17.8631 6.04093C17.8677 6.37347 17.9127 6.70485 17.9982 7.02584L11.4352 10.775C11.0546 10.1862 10.5274 9.70652 9.90531 9.38313C9.28325 9.05975 8.58776 8.90375 7.88718 8.93048C7.18659 8.95721 6.50501 9.16574 5.9094 9.53559C5.31379 9.90543 4.82464 10.4239 4.49002 11.04C4.15539 11.656 3.9868 12.3486 4.00081 13.0495C4.01481 13.7505 4.21094 14.4357 4.56991 15.038C4.92888 15.6402 5.43834 16.1387 6.04825 16.4844C6.65816 16.8302 7.34753 17.0113 8.04862 17.01Z"/></g><defs><filter id="filter0_d_150_28" width="30" height="31.138" x="0" y="0" color-interpolation-filters="sRGB" filterUnits="userSpaceOnUse"><feFlood flood-opacity="0" result="BackgroundImageFix"/><feColorMatrix in="SourceAlpha" result="hardAlpha" type="matrix" values="0 0 0 0 0 0 0 0 0 0 0 0 0 0 0 0 0 0 127 0"/><feOffset dy="2"/><feGaussianBlur stdDeviation="2"/><feComposite in2="hardAlpha" operator="out"/><feColorMatrix type="matrix" values="0 0 0 0 0 0 0 0 0 0 0 0 0 0 0 0 0 0 0.25 0"/><feBlend in2="BackgroundImageFix" mode="normal" result="effect1_dropShadow_150_28"/><feBlend in="SourceGraphic" in2="effect1_dropShadow_150_28" mode="normal" result="shape"/></filter></defs></svg>