<svg width="17" height="17" viewBox="0 0 17 17" fill="none" xmlns="http://www.w3.org/2000/svg">
<g clip-path="url(#clip0_446_2)">
<path d="M13.1903 11.3928C13.1925 12.2557 13.0087 13.109 12.6516 13.8946C12.2944 14.6801 11.7722 15.3796 11.1206 15.9453C10.6935 16.3207 10.986 17.0233 11.5548 16.9667C11.9351 16.9295 12.3113 16.8584 12.6789 16.7542C13.6659 16.4758 14.5632 15.9448 15.2821 15.2134C16.001 14.4821 16.5167 13.5759 16.7781 12.5842C17.0267 11.6838 17.0638 10.7382 16.8865 9.82105C16.7091 8.90395 16.3222 8.04026 15.7559 7.29743C15.1896 6.55459 14.4592 5.95273 13.6218 5.53886C12.7844 5.12498 11.8627 4.91029 10.9286 4.91155C10.6813 4.91137 10.4341 4.92556 10.1884 4.95405C9.62601 5.02489 9.48363 5.77643 9.98301 6.04631C11.8962 7.07481 13.1918 9.08151 13.1918 11.3928H13.1903ZM5.60055 13.1728C4.73576 13.1756 3.88045 12.9928 3.09231 12.6368C2.30417 12.2809 1.60154 11.7601 1.0318 11.1095C0.654967 10.6845 -0.0498246 10.9749 0.00755038 11.5416C0.0445442 11.9207 0.115666 12.2958 0.22005 12.6621C0.782467 14.6618 2.39038 16.2222 4.40418 16.7464C8.4608 17.8032 12.1038 14.7822 12.1038 10.9175C12.1038 10.6696 12.0896 10.4217 12.0613 10.1808C11.9904 9.61985 11.2361 9.47818 10.9655 9.97543C10.4432 10.9431 9.66871 11.7513 8.72413 12.3143C7.77955 12.8772 6.70016 13.1739 5.60055 13.1728V13.1728ZM3.81272 5.60714C3.81076 4.74409 3.99474 3.89075 4.35214 3.10518C4.70954 2.31961 5.23197 1.62024 5.88388 1.05468C6.31101 0.678554 6.01847 -0.0234039 5.44968 0.0332628C5.06739 0.0707133 4.68882 0.139415 4.31776 0.238679C3.33163 0.518444 2.43528 1.05002 1.71682 1.78114C0.998365 2.51226 0.482538 3.41777 0.22005 4.40864C-0.0285664 5.30903 -0.0656685 6.2547 0.111642 7.17181C0.288952 8.08891 0.675875 8.9526 1.24219 9.69544C1.8085 10.4383 2.53888 11.0401 3.37627 11.454C4.21365 11.8679 5.13538 12.0826 6.06947 12.0813C6.3188 12.0813 6.56813 12.0671 6.80968 12.0388C7.37209 11.968 7.51447 11.2157 7.01509 10.9466C6.04766 10.4303 5.23873 9.66084 4.67479 8.72036C4.11084 7.77988 3.81311 6.70378 3.81343 5.60714H3.81272ZM11.406 3.8271C12.2708 3.82438 13.1261 4.00716 13.9143 4.36311C14.7024 4.71905 15.4051 5.23989 15.9748 5.89047C16.3502 6.31547 17.0557 6.02505 16.9983 5.45839C16.9614 5.07899 16.8903 4.70371 16.7858 4.3371C16.2227 2.33747 14.6148 0.777721 12.6003 0.252846C8.55076 -0.811071 4.9078 2.20997 4.9078 6.07464C4.9078 6.32256 4.92197 6.57047 4.9503 6.81201C5.02113 7.3723 5.77763 7.51397 6.04751 7.01743C6.56914 6.05151 7.34265 5.24492 8.28589 4.68331C9.22913 4.12171 10.3069 3.82607 11.4046 3.8278L11.406 3.8271Z" fill="black"/>
</g>
<defs>
<clipPath id="clip0_446_2">
<rect width="17" height="17" fill="white"/>
</clipPath>
</defs>
</svg>
