<svg width="32" height="32" viewBox="0 0 32 32" fill="none" xmlns="http://www.w3.org/2000/svg">
<path d="M5.64704 7.52897C5.6471 6.27084 5.96244 5.03278 6.56424 3.9279C7.16603 2.82303 8.03509 1.88657 9.09203 1.20409C10.149 0.5216 11.3601 0.114845 12.6147 0.0209839C13.8693 -0.0728769 15.1275 0.149149 16.2742 0.666777C17.4209 1.1844 18.4196 1.98113 19.1791 2.98416C19.9386 3.98719 20.4347 5.16455 20.6219 6.40867C20.8092 7.65279 20.6817 8.924 20.2511 10.1062C19.8206 11.2883 19.1006 12.3437 18.1571 13.176H17.9067C16.3952 13.176 15.0493 13.8856 14.1816 14.9925C13.1174 15.1358 12.0349 15.0499 11.0066 14.7404C9.97836 14.431 9.02819 13.9052 8.21988 13.1983C7.41156 12.4914 6.76379 11.6198 6.32004 10.642C5.87629 9.6642 5.64682 8.60277 5.64704 7.52897V7.52897ZM13.1764 1.88193C11.6787 1.88193 10.2424 2.47689 9.18336 3.53591C8.12433 4.59494 7.52938 6.03128 7.52938 7.52897C7.52938 9.02666 8.12433 10.463 9.18336 11.522C10.2424 12.5811 11.6787 13.176 13.1764 13.176C14.6741 13.176 16.1104 12.5811 17.1695 11.522C18.2285 10.463 18.8235 9.02666 18.8235 7.52897C18.8235 6.03128 18.2285 4.59494 17.1695 3.53591C16.1104 2.47689 14.6741 1.88193 13.1764 1.88193ZM13.2762 16.9407H3.78163C3.28589 16.9387 2.79463 17.0346 2.33604 17.2229C1.87744 17.4112 1.46052 17.6881 1.10919 18.0379C0.757859 18.3877 0.479028 18.8033 0.288688 19.2611C0.0983486 19.7188 0.000243786 20.2096 0 20.7054C0 23.8884 1.56799 26.2884 4.01881 27.8527C6.43197 29.3905 9.68467 30.1171 13.1764 30.1171C14.6879 30.1171 16.1562 29.9816 17.5303 29.703L15.9228 28.0616C15.0493 28.1783 14.1308 28.2348 13.1764 28.2348C9.91055 28.2348 7.04562 27.5496 5.03151 26.264C3.05505 25.0028 1.88235 23.1713 1.88235 20.7054C1.88235 19.6644 2.72564 18.823 3.78163 18.823H13.1745V17.912C13.1745 17.5788 13.2122 17.2532 13.2762 16.9407ZM15.0588 23.3218C15.0588 24.0691 15.3505 24.7844 15.8719 25.3171L21.583 31.1468C22.6747 32.2611 24.4573 32.2875 25.5811 31.2051L31.1283 25.8649C31.4 25.6029 31.6169 25.2896 31.7665 24.9431C31.9161 24.5966 31.9954 24.2239 31.9998 23.8465C32.0042 23.4691 31.9336 23.0946 31.792 22.7448C31.6505 22.3949 31.4409 22.0766 31.1754 21.8084L25.327 15.8998C25.0629 15.6332 24.7486 15.4216 24.4022 15.2771C24.0559 15.1327 23.6843 15.0584 23.3091 15.0583H17.9011C17.5275 15.0583 17.1576 15.132 16.8125 15.2751C16.4674 15.4181 16.1539 15.6278 15.8899 15.8922C15.6259 16.1565 15.4167 16.4703 15.274 16.8156C15.1314 17.1609 15.0583 17.5309 15.0588 17.9045V23.3237V23.3218ZM20.2352 21.6466C19.8608 21.6466 19.5017 21.4978 19.2369 21.2331C18.9722 20.9683 18.8235 20.6092 18.8235 20.2348C18.8235 19.8604 18.9722 19.5013 19.2369 19.2365C19.5017 18.9718 19.8608 18.823 20.2352 18.823C20.6096 18.823 20.9687 18.9718 21.2335 19.2365C21.4982 19.5013 21.647 19.8604 21.647 20.2348C21.647 20.6092 21.4982 20.9683 21.2335 21.2331C20.9687 21.4978 20.6096 21.6466 20.2352 21.6466Z" fill="black"/>
</svg>
