<svg xmlns="http://www.w3.org/2000/svg" width="43" height="43" fill="none" viewBox="0 0 43 43"><g filter="url(#filter0_d_45_267)"><path fill="#fff" d="M21.5 9.54545C17.1091 9.54545 13.5455 13.1091 13.5455 17.5C13.5455 21.8909 17.1091 25.4545 21.5 25.4545C25.8909 25.4545 29.4545 21.8909 29.4545 17.5C29.4545 13.1091 25.8909 9.54545 21.5 9.54545ZM5.59091 19.0909H8.77273C9.64773 19.0909 10.3636 18.375 10.3636 17.5C10.3636 16.625 9.64773 15.9091 8.77273 15.9091H5.59091C4.71591 15.9091 4 16.625 4 17.5C4 18.375 4.71591 19.0909 5.59091 19.0909ZM34.2273 19.0909H37.4091C38.2841 19.0909 39 18.375 39 17.5C39 16.625 38.2841 15.9091 37.4091 15.9091H34.2273C33.3523 15.9091 32.6364 16.625 32.6364 17.5C32.6364 18.375 33.3523 19.0909 34.2273 19.0909ZM19.9091 1.59091V4.77273C19.9091 5.64773 20.625 6.36364 21.5 6.36364C22.375 6.36364 23.0909 5.64773 23.0909 4.77273V1.59091C23.0909 0.715909 22.375 0 21.5 0C20.625 0 19.9091 0.715909 19.9091 1.59091ZM19.9091 30.2273V33.4091C19.9091 34.2841 20.625 35 21.5 35C22.375 35 23.0909 34.2841 23.0909 33.4091V30.2273C23.0909 29.3523 22.375 28.6364 21.5 28.6364C20.625 28.6364 19.9091 29.3523 19.9091 30.2273ZM11.9386 5.69545C11.7915 5.54797 11.6166 5.43096 11.4242 5.35113C11.2317 5.2713 11.0254 5.2302 10.817 5.2302C10.6087 5.2302 10.4024 5.2713 10.2099 5.35113C10.0175 5.43096 9.84264 5.54797 9.69545 5.69545C9.54797 5.84264 9.43096 6.01746 9.35113 6.20992C9.2713 6.40237 9.2302 6.60869 9.2302 6.81705C9.2302 7.0254 9.2713 7.23172 9.35113 7.42418C9.43096 7.61663 9.54797 7.79146 9.69545 7.93864L11.3818 9.625C12.0023 10.2455 13.0205 10.2455 13.625 9.625C14.2295 9.00455 14.2455 7.98636 13.625 7.38182L11.9386 5.69545ZM31.6182 25.375C31.471 25.2275 31.2962 25.1105 31.1037 25.0307C30.9113 24.9508 30.705 24.9097 30.4966 24.9097C30.2882 24.9097 30.0819 24.9508 29.8895 25.0307C29.697 25.1105 29.5222 25.2275 29.375 25.375C29.2275 25.5222 29.1105 25.697 29.0307 25.8895C28.9508 26.0819 28.9097 26.2882 28.9097 26.4966C28.9097 26.705 28.9508 26.9113 29.0307 27.1037C29.1105 27.2962 29.2275 27.471 29.375 27.6182L31.0614 29.3045C31.6818 29.925 32.7 29.925 33.3045 29.3045C33.452 29.1574 33.569 28.9825 33.6489 28.7901C33.7287 28.5976 33.7698 28.3913 33.7698 28.183C33.7698 27.9746 33.7287 27.7683 33.6489 27.5758C33.569 27.3834 33.452 27.2085 33.3045 27.0614L31.6182 25.375ZM33.3045 7.93864C33.452 7.79146 33.569 7.61663 33.6489 7.42418C33.7287 7.23172 33.7698 7.0254 33.7698 6.81705C33.7698 6.60869 33.7287 6.40237 33.6489 6.20992C33.569 6.01746 33.452 5.84264 33.3045 5.69545C33.1574 5.54797 32.9825 5.43096 32.7901 5.35113C32.5976 5.2713 32.3913 5.2302 32.183 5.2302C31.9746 5.2302 31.7683 5.2713 31.5758 5.35113C31.3834 5.43096 31.2085 5.54797 31.0614 5.69545L29.375 7.38182C28.7545 8.00227 28.7545 9.02046 29.375 9.625C29.9955 10.2295 31.0136 10.2455 31.6182 9.625L33.3045 7.93864ZM13.625 27.6182C13.7725 27.471 13.8895 27.2962 13.9693 27.1037C14.0492 26.9113 14.0903 26.705 14.0903 26.4966C14.0903 26.2882 14.0492 26.0819 13.9693 25.8895C13.8895 25.697 13.7725 25.5222 13.625 25.375C13.4778 25.2275 13.303 25.1105 13.1105 25.0307C12.9181 24.9508 12.7118 24.9097 12.5034 24.9097C12.2951 24.9097 12.0887 24.9508 11.8963 25.0307C11.7038 25.1105 11.529 25.2275 11.3818 25.375L9.69545 27.0614C9.075 27.6818 9.075 28.7 9.69545 29.3045C10.3159 29.9091 11.3341 29.925 11.9386 29.3045L13.625 27.6182Z"/></g><defs><filter id="filter0_d_45_267" width="43" height="43" x="0" y="0" color-interpolation-filters="sRGB" filterUnits="userSpaceOnUse"><feFlood flood-opacity="0" result="BackgroundImageFix"/><feColorMatrix in="SourceAlpha" result="hardAlpha" type="matrix" values="0 0 0 0 0 0 0 0 0 0 0 0 0 0 0 0 0 0 127 0"/><feOffset dy="4"/><feGaussianBlur stdDeviation="2"/><feComposite in2="hardAlpha" operator="out"/><feColorMatrix type="matrix" values="0 0 0 0 0 0 0 0 0 0 0 0 0 0 0 0 0 0 0.25 0"/><feBlend in2="BackgroundImageFix" mode="normal" result="effect1_dropShadow_45_267"/><feBlend in="SourceGraphic" in2="effect1_dropShadow_45_267" mode="normal" result="shape"/></filter></defs></svg>